<?xml version="1.0" encoding="utf-8"?>
<!-- Generator: Adobe Illustrator 18.1.1, SVG Export Plug-In . SVG Version: 6.00 Build 0)  -->
<!DOCTYPE svg PUBLIC "-//W3C//DTD SVG 1.1//EN" "http://www.w3.org/Graphics/SVG/1.1/DTD/svg11.dtd">
<svg version="1.1" xmlns="http://www.w3.org/2000/svg" xmlns:xlink="http://www.w3.org/1999/xlink" x="0px" y="0px"
	 viewBox="0 0 309.5 178.9" style="enable-background:new 0 0 309.5 178.9;" xml:space="preserve">
<style type="text/css">
	.st0{display:none;}
	.st1{display:inline;}
</style>
<g id="Layer_1">
	<path d="M305.6,128.1c1.9-1.5,2.8-3.7,2.6-6.4c-0.2-2.2-1.3-3.8-2.4-5.6c-1.4-2.6-0.8-4.5-0.6-7.2c1-12.2-11.9-9.6-20-10.7
		c-5.8-0.8-12-2.3-17.4-4.8c-7.4-3.5-2.8-9.3-0.5-14.7c2.1-4.9,2.2-12-1.7-15.7c0.8-6.2-7.5-14.5-11-18.1c-3.7-3.7-7.9-7-12.7-9
		c-4.1-1.7-11-3.5-14.9-0.5c-0.8,0.6-1.4,1.3-1.9,2.3c-0.4,0.9-0.3,2.5-0.8,3.1c-1.2,1.6-4.4,0.8-6.1,0.5
		c-6.6-1.3-12.9-3.6-19.6-4.9c-12-2.2-24.1-3.1-36.2-2.6c-2.4,0.1,1.9-2.5,6.6-5.9c3.3-2.3,6-4.8,7.1-8.9c0.8-3-1.8-5.1-4.6-4.6
		c-6.4,1-10.1-2.3-14.5-6.2c-2.5-2.2-9.9-2.2-10-2.6c-0.5-1.6-1.5-2.9-2.8-3.8c-2.7-2.1-6.8-2.6-9.7-0.6c-2.1,1.5-2.3,3.5-5.4,3.1
		c-2.2-0.3-4.2-1.1-6.4-1.4c-4.4-0.4-9,0.2-13.1,1.8c-4,1.5-7.8,3.8-10.8,6.8c-0.9,0.9-5.7,7.8-7.4,9.6c-8.5-5.5-18.4,0.5-23.2,8.6
		c-3.1,5.1-4.8,11.6-9.4,15.6c-4.5,4-10.6,3.7-14.4,9c-3.5,4.9-4.6,10.8-9,15.3c-4.6,4.7-10.3,8-14.5,13c-4.8,5.8-6.8,14-3.6,20.3
		c-2.4,1.3-4.3,3.3-5.5,5.9c-9,1.9-15.1,12.5-10.4,21.1c0.9,1.7,2,2.7,2.2,4.8c0.2,1.9-0.6,3.8-0.5,5.7c0.2,2.5,1,5,2.8,6.9
		c2.3,2.5,5.9,3.5,9,2.7c1.3,1.5,3.1,2.6,5.1,3.7c2.6,1.5,3.8,2.3,4.9,5.2c1,2.5,2,4.5,4.3,5.9c4.9,3.1,10.7,1.7,15.8,0.2
		c3.7-1.1,6.8-1.9,10.1,0.5c2.5,1.8,4.7,2.8,7.8,3c3.2,0.2,6.4-0.9,9.1,1.3c2.4,1.9,4.1,4.3,6.9,5.9c6.5,3.6,13.7,3.1,20.9,2.5
		c7.9-0.7,15.8-1.2,23.6-2c5.3-0.5,9.4-2.5,10-8.3c0.1-1.6-0.2-1.6,0.7-1.7c0.8-0.1,2.4,1,3.3,1.1c2.7,0.4,4.8-0.5,6.8-2.1
		c3.2-2.7,5.4-3.4,9-0.6c2.8,2.1,5,4.9,7.9,6.9c11.2,8,25.6,6.8,38.4,5.2c8-1,16-1.9,24-0.5c6.4,1.2,11.8,2.4,17.6-1.1
		c1.6-1,1.9-1.5,3.8-0.7c1.1,0.5,1.9,1.4,3,1.8c2.9,1.2,6.2,0.9,9.2,0.8c5.8-0.2,11.9-0.8,17.2-3.3c3.2-1.5,5.7-3.6,8.1-6.2
		c1.1-1.2,2.7-3.5,4.6-3c1.1,0.3,2.3,2.3,3.2,3.1c4.3,3.9,10.1,4.3,14.4,0C316.5,156.7,302.4,141.3,305.6,128.1z M301.2,160.3
		c-0.9,2-2.6,4.1-4.9,3.1c-1.2-0.5-2.3-2.3-3.2-3.2c-2.1-1.9-4.5-3.2-7.4-2.9c-2.8,0.2-5,1.9-7,3.8c-3.1,3.1-5.4,5.8-9.8,7.2
		c-3.5,1.1-7.2,1.4-10.9,1.6c-1.8,0.1-4,0.4-5.8,0.1c-2.3-0.4-3.4-2.2-5.4-3.2c-2.5-1.3-5.2-0.9-7.5,0.6c-1.7,1.1-2.9,2.5-5,2.9
		c-2.6,0.5-5.4-0.4-7.9-0.9c-17-3.3-33.9,3.9-50.7,0.4c-3.7-0.8-7.2-2.1-10.3-4.3c-3.5-2.5-6.1-6.2-9.9-8.3
		c-2.6-1.5-5.7-2.3-8.7-1.9c-1.4,0.2-2.8,0.7-4,1.5c-1.1,0.7-2.2,2.6-3.4,3c-2.7,1-5.5-1.9-8.6-0.7c-2.4,0.9-3.6,3.1-4.2,5.5
		c-0.4,1.5-0.1,2.7-1.3,3.8c-1.3,1.2-4.6,0.9-6.4,1c-5,0.4-10.1,0.8-15.1,1.3c-4.8,0.4-9.9,1.2-14.8,0.7c-5.7-0.6-8.3-3.9-12.3-7.4
		c-2.9-2.5-6.2-2.8-9.9-2.7c-2.3,0.1-4.2,0.3-6.3-0.9c-1.6-0.9-2.7-2.2-4.5-2.9c-3.7-1.5-7.6-0.9-11.3,0.1c-3.6,1-10.1,4.1-12.5-0.4
		c-1.6-3-1.9-5.3-4.8-7.5c-1.4-1.1-7-3-7.1-4.9c-0.1-2.9-4.2-5.4-6.4-2.7c-1.8,2.2-3.1-0.6-3.3-2.2c-0.1-1.7,0.5-3.4,0.6-5
		c0.1-2.9-1.1-4.9-2.5-7.4c-2.7-4.7,0.1-11.2,6-11.3c1.6,0,3.2-1.2,3.6-2.8c0.7-3,2.8-4.5,5.9-4.4c4,0.2,4.7-5,1.9-7
		c-3.8-2.6-3.3-7.9-1.4-11.5c2.4-4.5,6.8-7.7,10.7-10.8c3.4-2.7,6.7-5.6,9.2-9.2c2.4-3.5,3.4-7.8,5.7-11.3c2.7-4,7.8-4.1,11.6-6.7
		c3.1-2.1,5.4-5.1,7.3-8.2c2.4-3.9,3.9-8.3,6.5-12.1c2-2.9,5.9-6.4,9.6-5.8c0.1,0.2,0.2,0.3,0.4,0.4c3,2.7,7,3,10.4,0.7
		c3.8-2.6,5-7.6,8.2-10.8c3.7-3.6,8.7-6,13.8-6.5c5.1-0.5,10.2,2.8,15.1,1.8c2.2-0.5,3.1-1.8,4.6-3.2c2.1-1.9,1.8-1.6,2.3,1.3
		c0.6,3.7,3.7,6.2,7.5,4.8c3-1.2,3.1-2.7,5.9,0.2c1.8,1.8,3.7,3.4,5.9,4.6c1.9,1,3.8,1.6,5.8,2c2.8,0.5-2.1,1.1-5,3.5
		c-3.5,2.9-6.1,6.7-7.9,10.9c-1,2.3,0.1,5.9,3.2,5.6c11.9-1,24-0.8,35.8,1c5.8,0.9,11.5,2,17.2,3.5c4.2,1.1,8.5,2.9,12.9,2.9
		c3,0,6.3-0.7,8.3-3c1-1.1,1.3-3.9,2-4.5c1.3-1.1,4.8,0.3,6.1,0.7c4.6,1.6,8.5,4.9,11.9,8.3c1.1,1.1,8.6,10.5,8.7,10.5
		c-2.6,1.6-2.4,6.2,0.9,6.9c5.9,1.2-2.8,15.1-3.3,18.3c-1.1,6.9,3.4,11.5,9.3,14c7.5,3.2,15.6,5,23.7,5.7c2,0.2,4.3-0.1,6.2,0.2
		c2.6,0.5,2.6,1.4,2.3,3.9c-0.4,3.4-0.3,6,1.4,9.1c0.4,0.7,1.7,1.8,1.8,2.5c0,0.2,0.1,0.3,0.1,0.4c-0.1,0-0.2,0-0.4,0.5
		c-0.4,1-1.5,1.8-2,3c-1.3,3.5-1.2,7.4-0.6,11.1C299,143.7,304.4,153.4,301.2,160.3z"/>
	<circle cx="75.1" cy="85.9" r="4.8"/>
</g>
<g id="Layer_2" class="st0">
	<g class="st1">
		<path d="M318.3,155.5c-0.1-0.2-0.1-0.3-0.2-0.5c-0.1-0.3-0.2-0.6-0.4-0.9c-0.4-1.2-0.9-2.4-2-3.2c-0.5-0.3-0.4-0.8-0.2-1.5
			c0.2-0.5,0.2-1,0-1.3c-0.2-0.3-0.5-0.5-1-0.6c-0.1,0-0.3,0-0.4-0.1c-0.3,0-0.7-0.1-0.9-0.2c-0.2-0.2-0.5-0.2-0.7-0.3
			c-0.4-0.1-0.5-0.1-0.5-0.4c-0.1-1-0.2-2-0.2-3c-0.1-1-0.2-2-0.2-3l0-0.1c0-0.3-0.1-0.7,0.1-0.9c0.6-1.2,0.5-2.4-0.1-3.6
			c0-0.1,0-0.3,0.1-0.4c0.3-0.4,0.7-0.7,1-1c0.4-0.4,0.8-0.7,1.1-1.1c0.4-0.4,0.7-1,0.8-1.5c0.1-0.5,0.2-1,0.3-1.4
			c0.1-0.5,0.2-1.1,0.3-1.6c0.2-0.9-0.1-1.4-0.5-1.7l-0.6-0.6c-0.5-0.5-0.9-0.9-1.4-1.4c0,0,0-0.1-0.1-0.1l0.7,0c1,0.1,2,0.1,3,0.2
			c0.9,0.1,1.4-0.3,1.6-1.2c0.1-0.6,0.2-1.2,0.3-1.8l0.1-1.4c-0.2-0.1-0.3-0.3-0.5-0.4c-0.4-0.3-0.7-0.5-0.9-0.9
			c-0.5-0.8-0.9-1.6-1.2-2.4c-0.2-0.4-0.4-0.8-0.6-1.3c-0.7-1.3-1.1-2.6-0.5-4c0.5-1.1,0.1-2.2-0.3-2.8l-0.3-0.6
			c-0.8-1.5-1.7-3.1-2.2-4.7c-0.4-1.1-0.8-2.3-2.6-2.3c-0.2,0-0.4,0-0.6,0c-0.2,0-0.5,0-0.7,0c-0.4,0-0.9,0.7-1.4,1
			c-1,0.7-4.3,0.7-4.5,0.4c-0.6-0.8-1.5-1.5-2.6-1.4c-0.6,0-1.2-0.1-1.8-0.2c-0.6-0.1-1-0.3-1.3-0.5c-0.8-0.5-1.6-0.6-2.4-0.2
			l-0.1,0c-0.8,0.4-1.5,0.8-2.4,0.6c-0.4-0.1-0.7-0.1-1.1-0.2c-1.4-0.2-2.7-0.3-4.1-0.5l-0.3,0c-0.4-0.1-0.9-0.1-1.4-0.1
			c-0.5,0-1,0.1-1.5,0.1c-0.1,0-0.2,0-0.2,0c0-1.8-1.3-2.4-2.5-2.9l-0.4-0.2c-0.3-0.1-0.5-0.2-0.8-0.2c-0.7,0-1.2,0.4-1.7,0.8
			c-0.2,0.1-0.3,0.3-0.5,0.4c-0.1-0.2-0.1-0.4-0.3-0.6c-0.4-0.5-0.8-0.9-1.2-1.2c-0.3-0.2-0.6-0.3-0.8-0.3c-0.2,0-0.3-0.1-0.5-0.1
			c-0.1-0.1-0.3-0.2-0.3-0.2c-0.1-0.3-0.2-0.7-0.3-1c-0.1-0.3-0.1-0.6-0.2-0.9c-0.2-0.5-0.4-1.1-1.3-1.2c-0.4,0-0.6-0.2-0.7-0.5
			c-0.2-0.6-0.5-1.3-0.7-1.8c-0.1-0.2-0.2-0.4-0.3-0.7c-0.3-0.6-0.2-1.1,0.1-1.6c0.8-1.4,0.7-2.5-0.2-3.5c-0.4-0.5-0.5-0.8,0.1-1.5
			l0.4-0.4c1-1.2,2-2.4,3.5-2.8c0.4-0.1,0.7-0.4,1-0.9c0.3-0.5,0.6-0.9,0.8-1.4c0.3-0.6,0.7-1.2,1.1-1.8c0.7-1.1,0.7-2.3-0.1-3.5
			l-0.1-0.2c-0.1-0.2-0.3-0.4-0.3-0.6c-0.1-0.9-0.2-1.8-0.3-2.7c-0.1-0.7-0.1-1.4-0.2-2.1c0-0.2,0-0.3,0-0.5c0-0.6-0.1-1.3-0.5-1.7
			c-0.6-0.7-1.6-1.1-2.7-1.1c-0.3,0-0.5,0-0.8,0.1c-0.4,0.1-0.8,0.3-1.2,0.5c-0.1,0-0.1,0.1-0.2,0.1c0,0,0,0,0,0
			c-0.1-0.2-0.2-0.4-0.2-0.6c0.1-0.6,0-1.1-0.3-1.7c-0.1-0.1-0.1-0.3-0.2-0.4l0.2,0c0.5,0,1-0.1,1.5-0.1c0.3,0,0.5-0.1,0.8-0.1
			c0.4-0.1,0.8-0.2,1.2-0.1c0.1,0,0.1,0,0.2,0c1.1,0,1.4-0.9,1.6-1.4c0.2-0.7,0.3-1.4-0.3-2.1c-0.8-0.9-1.7-1.8-2.8-3.1
			c-0.6-0.7-1.4-0.9-2.2-0.5c-0.3,0.2-0.5,0.3-0.8,0.5l-0.1-0.1c-0.2-0.4-0.5-0.7-0.7-1.1c-0.4-0.6-1-1.3-2-1.4
			c-0.8-0.1-1.5-0.2-2.1-0.7c-0.3-0.3-0.6-0.6-0.9-0.8c-0.4-0.3-0.7-0.6-0.6-1.1c0.1-0.5,0-1,0-1.4c0-0.4,0-0.7,0-1.1
			c0.1-1.3-0.7-2-1.4-2.5c-0.7-0.4-1.4-1-2-1.5c-0.6-0.5-1.9-0.7-2.4-0.2c-0.1,0.1-0.2,0.2-0.3,0.3c-0.1-1.4-0.4-1.8-2-2.2
			c-0.1,0-0.2,0-0.4-0.1c-0.2,0-0.3-0.1-0.4-0.1l-0.3-0.1c-0.4-0.1-0.8-0.2-1.1-0.4c-0.2-0.1-0.4-0.3-0.6-0.4
			c-0.4-0.3-0.8-0.6-1.3-0.7c-0.7-0.1-1.1-0.5-1.5-1.2c-0.6-0.8-1.3-1.1-2.5-0.9c-0.6,0.1-1,0.1-1.4,0.1c-1.1,0-2-0.2-2.8-0.5
			c-0.8-0.3-1.7-0.5-2.6-0.6c-0.3-0.1-0.6-0.1-0.9-0.2c-0.1,0-0.2,0-0.3,0c-0.9,0-1,1-1,1.3c0,0.3,0.1,0.6,0.1,0.8
			c0,0.1,0.1,0.3,0.1,0.5l0,0.3c0.1,0.4,0.1,0.8,0,1.1c-0.1,0.3-0.3,0.5-0.6,0.7c-0.1,0.1-0.3,0.3-0.4,0.4c-0.1,0.1-0.2,0.2-0.3,0.3
			c-0.3,0.3-0.6,0.6-0.7,1c-0.3,0.6-0.5,1.2-0.7,1.8c-0.1,0.2-0.1,0.3-0.1,0.5c-1.6,0.1-3.1-0.1-5-0.8c-0.6-0.2-1.3-0.4-2-0.4
			c-0.4,0-0.8,0-1.2,0.1c-0.3,0-0.6,0.1-0.8,0.1c-0.1,0-0.2-0.1-0.2-0.2l-0.1-0.1c-0.1-0.1-0.2-0.2-0.3-0.3
			c-0.2-0.2-0.5-0.5-0.9-0.6c-0.4-0.1-1-0.1-1.5-0.1c-0.1,0-0.2,0-0.3,0c-0.1-0.1-0.1-0.2-0.2-0.3c-0.2-0.3-0.5-0.7-0.9-0.9
			c-0.3-0.2-0.7-0.2-1-0.3c-0.3,0-0.5-0.1-0.7-0.1c-0.3-0.1-0.6-0.1-0.8-0.1c-0.4,0-0.6,0-0.7-0.3c-0.3-0.7-0.8-0.8-1.1-0.8
			c-0.3,0-0.6,0.1-1,0.3c-0.7,0.4-1.3,0.8-1.9,1.2l-0.3,0.2c-0.3-1-1.1-1.5-1.8-2.1c-0.2-0.2-0.4-0.3-0.6-0.5
			c-1.1-0.9-2.4-1-3.8-0.2c-0.8-0.7-1.6-1.3-2.8-1.4c0,0-0.1,0-0.1-0.1c-0.5-0.5-1-0.9-1.6-0.9c-0.4,0-0.7,0.1-1.2,0.3
			c-0.9,0.3-2,0.5-3.1,0.6c-0.7,0-1.5-0.1-2.2-0.2c-0.2,0-0.4-0.1-0.6-0.1l-0.4-0.1c-1.1-0.1-2.1-0.3-3.1-0.9
			c-1.7-1.1-3.1-1.2-4.5-0.4c-0.1,0-0.2,0-0.4-0.1c-0.2,0-0.3-0.1-0.4-0.1c-0.2,0-0.3,0-0.5-0.1c-0.5-0.1-1-0.1-1.4,0
			c-0.8,0.3-1.5,0.9-2.5,0.7c-0.6-0.1-2.9-0.1-3.2-0.1c-0.4,0-0.7-0.2-1-0.3c-0.9-0.2-1.5-0.4-2.2-0.1c-0.4,0.1-1,0.3-1.2,0.2
			c-1-0.4-2-0.9-2.9-1.4c-0.5-0.2-0.9-0.5-1.4-0.7c-0.3-0.2-0.6-0.1-0.8,0c-0.7,0.3-1.3,0.7-2,1l-1.5,0.4c-2.5,0-1.7-1.7-1.7-1.7
			c0,0,0.2-0.5,0.4-0.5l1.5,0l1.1,0c1.4,0,1.8-0.6,1.8-2c0-0.9,0-1.7,0-2.6v-0.5l1.7-0.5c1.4-0.5,3-0.9,4.4-1.4
			c0.6-0.2,1.4-0.6,1.4-1.8c0-0.7,0.1-1.4,0.2-2c0,0,0.2-0.1,0.2-0.2c0.7-0.2,1.4-0.4,2.1-0.5l1.1-0.3c0.7-0.2,1.3-0.8,1.6-1.7
			c0.3-0.8,0.2-1.5-0.2-2c-0.5-0.6-1-1.1-1.6-1.6c-0.3-0.2-0.7-0.4-1.1-0.4c-1.1-0.1-1.9-0.2-2.7-0.2c-0.8,0-1.5-0.1-2-0.7
			c-0.3-0.3-0.8-0.4-1-0.4c-0.5-0.1-1-0.1-1.5-0.2c-0.6-0.1-1.2-0.1-1.8-0.2c-0.1,0-0.3-0.1-0.3-0.2c-0.1-0.2-0.2-0.3-0.3-0.5
			c-0.5-0.9-1-1.8-2.3-2c0,0-0.1,0-0.1,0c-0.5-1.1-1.4-1.7-2.6-2.1c-0.7-0.2-1.5-0.2-2,0.4l-0.7,0.8c-0.4-0.5-0.6-1-0.5-1.5
			c0-0.5-0.5-1.1-1-1.2c-1-0.4-2-0.6-2.9-0.8c-0.2,0-0.3-0.1-0.5-0.1c-0.5,0-1.1,0.2-1.4,1.1c-0.2,0.7-0.5,1.3-0.8,1.9
			c-0.2,0.4-0.3,0.7-0.4,1.1c0,0.1-0.1,0.2-0.1,0.2c0,0-0.1,0-0.2-0.1c-1.1-0.5-2.3-0.9-3.5-1.3l-0.3-0.1c-0.3-0.1-0.4-0.2-0.5-0.3
			c0-0.1,0-0.3,0.2-0.5c0.2-0.3,0.4-0.6,0.6-0.9l0.6-0.8c0.4-0.6,0.6-1.3,0.5-1.9c-0.1-0.6-0.5-1.2-1.2-1.6l-0.7-0.4
			c-0.9-0.6-1.8-1.1-2.7-1.6c-0.3-0.1-1.1-0.5-1.9-0.5c-0.3,0-0.6,0.1-0.8,0.1c-1.2,0.5-2.2,1.5-2.9,2.2c-0.5,0.5-0.8,1.1-1.2,1.7
			c-0.1,0.2-0.2,0.3-0.3,0.5c-0.8-1.1-1.9-1.2-2.9-1.2c-0.3,0-0.6,0-0.9,0c-0.1,0-0.3,0-0.4,0c-1.1-0.1-2.3-0.2-3.3-0.9
			c-1.5-1-2.8-1.1-4.1-0.5c-0.9,0.5-2,0.6-3.5,0.3c-0.7-0.1-1.3,0-1.7,0.4c-0.3,0.3-0.5,0.5-0.8,0.8c-0.5,0.5-0.9,0.9-1.4,1.3
			l-0.2,0.1c-0.8,0.7-1.7,1.3-2.6,0.8c-1.2-0.7-2.3-1-3.7-0.8c-0.7,0.1-1.4,0.3-1.8,1.2c-0.3,0.7-0.6,0.9-1.1,1
			c-0.4,0-1,0.2-1.3,0.6c-0.5,0.7-1,1.4-1.5,2.1c-0.3,0.4-0.6,0.8-0.9,1.2l-0.1,0.1c-0.1,0.1-0.3,0.4-0.4,0.5
			c-0.4,0.1-0.8,0.8-1.1,0.8c-0.2,0-0.9-0.2-0.9-0.2c-0.4,0-0.8-0.3-1.2-0.1c-0.4,0.3-0.8,0.4-1.2,0.7c-0.2,0.2-0.5,0.3-0.8,0.5
			c-0.9,0.6-0.7,1.5-0.6,1.9c0.1,0.3,0.2,0.6,0.3,0.9c-0.3,0.2-0.7,0.3-1.1,0.4c-0.8,0.3-1.7,0.6-2.3,1.4c-0.1,0.1-0.3,0.2-0.4,0.2
			c-0.5-0.4-1.1-0.5-1.9-0.5c-0.4,0-0.7,0-1.1,0.1c-0.2,0-0.5,0-0.7,0.1c-1.3,0.1-2.7,0.2-4,0.3c-1.1,0.1-2.2,0.2-3.2,0.3
			c-1.4,0.1-1.6,0.2-2.1,1.7c-0.2,0.7-0.3,1-0.9,1.1c-0.4,0-0.9,0.6-1,1l0,0.1c-0.2,0.8-0.2,1-0.6,1c-0.1,0-0.3,0.2-0.5,0.2h-0.1
			c-1.2,0-1.5,0.6-1.7,1.2c-0.1,0.4-0.2,0.8-0.3,1.2l-0.1,0.2L80.9,27c-0.4-0.1-0.8-0.2-1.1-0.2c-0.9-0.2-1.5,0-1.9,0.8
			c-0.4,0.9-0.9,1.7-1.5,2.4c-0.3,0.4-0.7,0.8-1.1,1.3c-0.3,0.4-0.7,0.7-1,1.1c-0.1,0.2-0.3,0.4-0.5,0.5c-0.5,0.5-1,1-1.1,1.8
			c-0.2,1.5-0.4,2.9-0.7,4.3c0,0.1-0.1,0.4-0.1,0.4l-0.1,0.1c-0.8,0.9-1.6,1.8-2.4,2.7c-1.6,1.7-2.3,3.3-2.8,5.1
			c-0.4,1.4-1.7,2.1-1.7,2.1l-0.6-0.1c-0.2,0-0.4,0.1-0.6,0.2c-0.1,0-0.3,0.1-0.4,0.1c-0.6,0.1-1.3,0.2-1.6,1.3
			c-0.1,0.3-0.4,0.5-0.9,0.5c-0.5-0.1-3.8,1.1-4.1,1.5c-0.2,0.2-0.4,0.2-0.5,0.4c-0.3,0.4-0.6,0.6-0.9,1c-0.2,0.3-0.4,0.5-0.6,0.8
			c-0.3,0.4-0.6,0.8-0.9,1.2c-0.1,0.2-0.4,0.3-0.6,0.4c-0.2,0-0.4,0-0.7,0c-0.1,0-0.2,0-0.4,0c-0.9,0-1.4,0.4-1.6,1.2
			c-0.1,0.3-0.2,0.6-0.2,0.9c-0.1,0.5-0.3,1-0.3,1.6C50,61.2,50,62,50,62.7c0,0.3,0,0.7,0,1c0,0.9,0,0.9-0.9,1.2
			c-1,0.3-2.1,0.6-2.3,2.2c-0.1,0.8-0.3,1.4-1.1,1.5c-0.4,0.1-0.5,0.4-0.7,0.8c0,0.1-0.1,0.2-0.1,0.2c-0.1,0.3-0.2,0.6-0.2,0.8
			c0,0.5-0.1,0.6-0.4,0.7c-0.6,0.2-1.1,0.4-1.6,0.6c-0.8,0.3-1.1,0.9-1.1,1.6c0.1,0.5-0.1,1-0.4,1.4c-0.2,0.2-0.3,0.5-0.5,0.7
			c0,0,0,0,0,0c-2.7-1.3-5.3-0.6-7.3,1.7c-0.2,0.2-0.4,0.5-0.5,0.7c-0.6,0.8-1.2,1.6-2.2,1.8c-0.4,0.1-0.7,0.7-0.8,1
			c-0.1,0.3-0.2,0.6-0.3,0.9c-0.1,0.4-0.2,0.7-0.3,1c-0.2,0.4-0.4,0.9-0.7,1.3c-0.1,0.2-0.2,0.3-0.3,0.5c-0.1,0.2-0.2,0.4-0.3,0.6
			c-0.2,0.4-0.5,0.7-0.7,1.1c-0.1,0.3-0.3,0.5-0.5,0.8c-0.5,0.8-1.1,1.8-0.8,3c0,0.1-0.1,0.2-0.2,0.3c-0.6,0.5-1.2,1.3-1,2.4
			c0.1,0.5-0.1,1-0.5,1.6c-0.7,0.9-1,1.6-0.1,2.4c0.3,0.3,0.3,0.3,0,0.7c-0.3,0.5-0.7,1.1-0.5,1.6c0.2,0.6,0.9,0.8,1.5,1
			c0.3,0.1,0.3,0.1,0.3,0.3l0,0.3c-0.1,0.8-0.1,1.7-0.1,2.5c0,0.4,0.2,1.1,0.6,1.5c0.4,0.4,0.9,0.8,1.4,1.1c0.1,0.1,0.3,0.2,0.4,0.3
			c0,0.2,0,0.3-0.1,0.4c-0.1,0.1-0.4,0.1-0.7,0c-0.8-0.2-1.5-0.7-2.3-1.1l-0.1-0.1c-0.5-0.3-1-0.6-1.6-0.6c-0.4,0-0.8,0.2-1.2,0.4
			c-0.6,0.5-1.2,1-1.7,1.6c-0.3,0.4-0.5,0.9-0.5,1.3c0,0.8,0,1.6,0,2.3l0,0.4c0,0.4-0.1,0.4-0.4,0.4l-0.8,0c-1.2,0-2.5,0.1-3.8,0.2
			c-0.6,0.1-1.3,0.3-1.8,0.7c-1,0.8-2,1.7-2.9,2.5c-0.2,0.2-0.6,0.7-0.7,1.2c-0.2,1.2-0.3,2.5-0.5,4.1c0,0.2,0,0.3,0,0.3
			c0,0,0,0.1-0.2,0.1H7.8l-0.9-0.1c-0.2,0-0.4-0.1-0.6-0.1c-0.1,0-0.1,0-0.1,0c-0.4,0-1.1,0.1-1.3,1.2c-0.1,0.3-0.1,0.6-0.1,0.9
			c0,0.2,0,0.5-0.1,0.7c-0.1,0.3-0.2,0.5-0.3,0.7C4,124,3.6,124.5,3.7,125c0.1,0.5,0.7,0.8,1.1,1c1.6,0.6,3.4,1.3,5.1,2.1
			c1.3,0.5,2.5,1.2,3.7,1.8l0.3,0.1c0,0,0.1,0.1,0.1,0.2c0,0.4,0.1,0.9,0.1,1.3c0,0.4,0,0.8,0.1,1.2c0,0.4,0.1,0.9,0.2,1.3
			c0,0.3,0.1,0.7,0.1,1l0.1,0.8c0.1,0.9,0.2,1.8,0.2,2.7c0,0.1-0.2,0.5-0.5,0.6c-0.7,0.5-1.3,1.8-1.1,2.7c0.1,0.5,0.3,1.1,0.3,1.7
			c0,0.5,0,1,0,1.5c0,0.6,0,1.3,0,1.9c0,0.5,0.4,1.1,0.9,1.4c1,0.5,2.5,0,3-1c0.5-0.8,0.9-1.7,1.4-2.5l0.3-0.6l0,0
			c0.4,0.5,0.8,0.9,1.2,1.3c0,0,0,0.1,0,0.2c-0.1,0.3-0.1,0.6-0.2,1c-0.1,0.4-0.2,0.9-0.2,1.3c-0.1,0.7,0,1.3,0.4,1.7
			c0.4,0.5,1.1,0.7,1.8,0.6c0.4-0.1,0.7-0.3,1-0.5c0.1-0.1,0.2-0.1,0.3-0.2c0.1,0,0.2-0.1,0.2-0.1c0,0.1,0.1,0.2,0.1,0.3
			c0.3,0.9,0.6,1.5,1.4,1.5c0.3,0,0.6-0.1,1-0.2c0.3-0.1,0.7-0.1,1-0.2l0.1,0.1c0.1,0.1,0.2,0.2,0.4,0.3c0.3,0.2,0.7,0.4,1.1,0.5
			c0.4,0.1,0.8-0.2,1.3-0.2c0,0,0,0,0,0c0,0-0.1,0.5-0.1,0.7c-0.1,0.4-0.2,0.9-0.3,1.3c0,0.3,0,0.8,0.2,1.1c0.2,0.2,0.6,0.4,1.3,0.2
			c0.2-0.1,0.5-0.2,0.7-0.3c0.2-0.1,0.4-0.2,0.7-0.3c0.2-0.1,0.5,0,0.6,0c1.5,1,1.4,3.1,0.7,4.6c-0.2,0.4-0.5,1.1,0.3,1.8
			c0.5,0.4,1,0.9,1.4,1.4c0.6,0.6,1.3,1.2,1.9,1.8c0.4,0.4,1.2,0.6,1.6,0.3c0.7-0.5,1.6-0.5,2.6-0.5l0.3,0c0.9,0,1.7,0,2.6,0.1
			c1.2,0,2.5,0.1,3.8,0.1c0.9,0,1.7-0.1,2.3-0.3c1.2-0.4,2.5-0.8,3.7-1.3c0.8-0.3,1.6-0.6,2.3-0.8c0.5-0.2,1.1-0.3,1.6-0.5
			c0.7-0.2,1.3-0.4,2-0.6c0.3-0.1,0.4-0.3,0.7,0.2c0.2,0.2,0.3,0.4,0.5,0.7c0.2,0.2,4.5,1.4,4.8,1.4c0,0,1.7,2.6,2.9,3l-0.1,0
			c0.4,0.1,0.5,0.6,0.6,0.9c0.2,0.5,0.8,1.1,1.2,1.1c0,0,0,0,0,0c0.3,0,0.6-0.6,0.9-0.8c0.1-0.1,0.2-0.3,0.3-0.4
			c0.3-0.1,0.6-0.4,0.9-0.6c0.5-0.3,1-0.7,1.5-0.7c0.1,0,0.2,0,0.4,0c0.4,0.1,0.8,0.1,1.3,0.1l0.3,0c0.4,0,0.7,0.1,0.9,0.5
			c0.2,0.3,0.5,0.6,0.7,0.9c0.1,0.1,0.2,0.2,0.3,0.3c0.4,0.4,0.8,0.8,1.3,1c0.9,0.4,1.8,0.6,2.7,0.9c0.4,0.1,0.8,0.2,1.2,0.4
			c0.3,0.1,0.6,0.3,0.7,0.6c0.1,0.3,0,0.6-0.2,0.9l-0.1,0.2c-0.4,0.6-0.7,1.1-1,1.7c-0.3,0.5-0.3,0.9-0.2,1.3
			c0.1,0.4,0.4,0.7,0.9,0.9c0.3,0.1,0.6,0.2,0.8,0.4c0.5,0.2,0.9,0.4,1.3,0.6c1.2,0.8,2.4,0.7,3.8-0.2c0.1,0,0.2,0,0.2,0
			c0.9,0.5,1.8,0.9,2.8,0.9c0.6,0,1.1-0.1,1.6-0.4c0.1,0.1,0.1,0.2,0.2,0.3c0.3,0.3,0.5,0.7,1,0.8c0.9,0.2,1.9,0.3,2.9,0.5
			c0.6,0.1,1.1,0.2,1.7,0.2c1,0.2,2,0.3,2.9,0.6c0.5,0.1,1,0.2,1.4,0.2c1,0,1.7-0.4,2.2-1l0.1-0.2c0.5-0.7,1.1-1.4,0.9-2.6
			c0.3,0.1,0.7,0.1,1,0.2c1.2,0.2,2.4,0.5,3.6,0.7c0.9,0.1,1.9,0.2,2.8,0.3c0.6,0.1,1.2,0.1,1.7,0.2c0.6,0.1,1.2,0.2,1.7,0.2
			c0.9,0.1,1.8,0.3,2.6,0.3c0.3,0,0.6,0.1,0.9,0.1c1.3,0.2,2.6,0.2,3.7-0.2c1.4-0.6,2.8-1,4.1-1.3c1.5-0.3,3.1-0.6,4.6-0.9
			c1-0.2,2.1-0.4,3.1-0.6c0.4-0.1,0.8-0.4,1-0.8c0.2-0.5,0.3-1.1,0.4-1.7l0.1-0.3c0.2-1-0.1-2-0.4-2.8l-0.2-0.5
			c-0.2-0.6-0.3-0.9,0-1.2c0.5-0.6,1-1.3,1.5-2l0.5-0.6l0.1,0c0.3,0.2,0.7,0.3,1.1,0.5c0.1,0.1,0.2,0.1,0.3,0.2
			c0.3,0.2,0.7,0.4,1.1,0.4l0.1,0c0.5,0,1-0.2,1.4-0.4c0,0,0.1,0,0.1-0.1c0.2,0.6,0.6,1.1,1.4,1.1c0.3,0,0.6-0.1,1.1-0.2
			c0.5-0.1,1-0.2,1.5-0.3c0.7-0.2,1.5-0.3,2.2-0.5c0.8-0.2,1.9-0.5,2-1.9c0-0.3,0.2-0.7,0.3-1l0.1-0.4c0.2-0.6,0.3-0.9,0.9-0.9
			c0.4,0,0.7-0.2,1.1-0.3c0.1-0.1,0.2-0.1,0.4-0.1c0.5-0.2,1-0.3,1.6-0.3c0.6,0,1.1,0.2,1.6,0.6c0.5,0.4,1,0.6,1.6,0.9
			c0.8,0.4,1.6,0.8,2.2,1.5c1,1.1,2.1,2.1,3.1,3.1c0.5,0.5,1,1,1.5,1.4c0.2,0.2,0.3,0.4,0.5,0.5c0.1,0.2,0.3,0.3,0.4,0.5l0.3,0.3
			c0.6,0.6,1.1,1.2,1.8,1.7l0.3,0.3c0.5,0.5,1.1,1,1.8,1.3c0.6,0.2,1.3,0.2,1.8,0.2c0.3,0,0.5,0,0.8,0l0.4,0c1,0,1.8,0.3,2.4,0.9
			c1.2,1.2,2.5,1.4,3.7,0.6c0.1,0,0.2,0.1,0.3,0.1c0.5,0.5,1,1.1,1.4,1.6c0.4,0.6,1,0.8,1.7,0.5c0.4-0.2,0.8-0.4,1.2-0.6
			c0.3-0.2,0.6-0.3,1-0.5c0.2-0.1,0.2-0.1,0.3-0.1c0.7,0.4,1.4,0.6,2.3,0.6c0.4,0,0.8,0,1.2-0.1c1.2-0.1,2.4-0.1,3.6-0.2
			c0.5,0,1,0,1.4,0c0.6,0,1.2,0,1.8-0.1c1.5-0.1,3-0.1,4.4-0.1c2,0,3.9-0.2,5.7-0.7c0.2-0.1,0.3-0.1,0.3-0.1c1.2,0.7,2.4,1,3.8,0.8
			c1-0.1,2.1-0.1,3.2-0.2c0.7,0,1.3,0,2-0.1c0.5,0,1-0.2,1.4-0.5c1.7-1,2.9-1.9,4.1-2.7c0.2-0.1,0.3-0.1,0.3-0.1
			c0.1,0,0.2,0,0.4,0.1c0.5,0.3,1.1,0.5,1.8,0.6c1.2,0.1,2.3,0.1,3.5,0.1c1.2,0,2.4,0,3.5,0.1c0.8,0,1.6,0.2,2.4,0.5
			c1,0.3,2.1,0.8,3.1,1.2l0.8,0.3c0.4,0.2,0.8,0.4,1.2,0.5c0.9,0.4,1.8,0.8,2.7,1c1.5,0.3,3.1,0.2,4.7,0.3c0.3,0,0.5-0.3,0.7-0.6
			c0.4-0.7,0.8-1.3,1.3-2c0.5-0.8,1-1.6,1.5-2.4c0.2-0.3,0.7-0.5,1.3-0.5c0.2,0,0.4,0,0.5,0.1c0.6,0.6,1.2,1.2,1.8,1.9
			c0.5,0.5,1,1.1,1.5,1.6c0.1,0.2,0.3,0.3,0.4,0.5c0.6,0.6,1.2,1.4,2.3,1.4c0.2,0,0.3,0,0.5-0.1c0.3-0.1,0.6-0.2,0.9-0.2
			c0.3-0.1,0.5-0.2,0.8-0.2c0.8-0.2,1.5-0.3,2.3-0.5c2.2-0.5,4.5-1,6.7-1.4c0.5-0.1,0.9-0.2,1.3-0.4c1-0.3,2-0.5,2.9-0.2
			c1.1,0.4,2.2,0.6,3.3,0.7c0.5,0.1,0.9,0.2,1.3,0.2c0.5,0.1,1.1,0.2,1.6,0.2c0.7,0,1.4-0.2,1.9-0.6c1-0.7,2-1.4,3-2l2.2-1.4
			c0.8-0.5,1.5-1,2.2-1.5l0.5-0.4c0.8-0.6,1.7-1.2,2.4-1.9c0.5-0.6,0.9-1.2,1.3-1.9c0.2-0.3,0.4-0.7,0.6-1c0.1-0.1,0.2-0.2,0.2-0.2
			l0.3,0c1.1,0.1,2.1,0.2,3,0.8c0.7,0.4,1.3,0.7,2,1c0.6,0.3,1.2,0.6,1.8,0.9c0.1,0.1,0.3,0.1,0.4,0.2c0.5,0.2,1,0.5,1.2,1
			c0.4,1,1,1.9,1.5,2.8l0.2,0.1c0.2,0.3,0.7,0.4,1.1,0.4c0,0,0,0,0,0c0.7,0,1.5,0,2.2-0.1l0.4,0c0.4-0.1,0.9-0.1,1.3-0.2
			c0.9-0.2,1.7-0.3,2.6-0.4c1.8,0,2.9-1,4-2.1c0.3-0.3,0.4-0.7,0.3-1.1c-0.1-0.4-0.4-0.7-0.9-0.8c-0.3-0.1-0.5-0.2-0.8-0.2
			c0.2,0,0.3-0.1,0.5-0.1c0.1,0,0.2,0,0.4-0.1c0.7-0.1,1.6-0.2,1.8-1.5c0.1-0.7,0.4-1.5,0.6-2.2c0.2-0.6,0.3-1.1,0.5-1.7
			c0.2-0.8,0.4-1.7,0.3-2.6C318.9,156.7,318.6,156.1,318.3,155.5z M258.5,44.9C258.5,44.9,258.5,44.9,258.5,44.9l0.4,0.3
			c0.6,0.4,1.2,0.9,1.8,1.3c0.1,0.1,0.3,0.3,0.3,0.4c0,0.5,0,0.9,0,1.4c0,0.3,0,0.7,0,1c0,0.5,0,1,0.1,1.4l0,0.6l0.2,0.1
			c0.3,0.2,0.7,0.5,1,0.7c0.7,0.5,1.3,0.9,1.9,1.3c0.4,0.2,0.9,0.4,1.3,0.6c0.2,0.1,0.5,0.2,0.7,0.3l0.1,0c0.2,0.1,0.5,0.2,0.6,0.3
			c0.3,0.4,0.5,0.7,0.8,1.2c0.1,0.2,0.3,0.4,0.4,0.6c0.6,0.9,1.4,1,2.2,0.3c0.1,0,0.1-0.1,0.2-0.1c0.1-0.1,0.3-0.2,0.4-0.3
			c0.1-0.1,0.1-0.1,0.1-0.1c0,0,0.1,0.1,0.2,0.2c0.4,0.5,0.8,0.9,1.2,1.4c0.3,0.3,0.5,0.6,0.8,0.9c0.1,0.1,0.2,0.3,0.2,0.4
			c-0.2,0.1-0.3,0.1-0.4,0.1c-0.9,0.1-1.8,0.2-2.7,0.3c-0.7,0.1-1.3,0.1-2,0.2c-0.4,0-0.7,0.3-0.9,0.6c-0.2,0.4-0.1,1,0.3,1.5
			c0.2,0.2,0.3,0.5,0.5,0.7c0.3,0.4,0.4,0.8,0.3,1.3c-0.2,1.1,0.5,1.7,1.1,2.2l0.2,0.1c0.3,0.2,0.5,0.3,0.8,0.3
			c0.4,0,0.8-0.2,1.2-0.4c0.6-0.3,1-0.4,1.5-0.3c0.7,0.1,0.8,0.3,0.8,0.9c0,1.6,0.2,3.2,0.4,4.8l0,0.3c0.1,0.6,0.3,1.2,0.6,1.6
			c0.5,0.6,0.3,1.1-0.1,1.9l-0.1,0.2c-0.1,0.2-0.2,0.4-0.4,0.6c-0.2,0.3-0.4,0.6-0.5,0.9c-0.3,0.8-0.8,1.4-1.7,1.7
			c-1.3,0.5-2.1,1.4-2.8,2.3l-0.3,0.3c-0.2,0.2-0.3,0.4-0.5,0.6c-0.3,0.4-0.5,0.7-0.8,1c-0.8,0.8-0.3,1.5-0.2,1.8
			c0.1,0.2,0.2,0.3,0.3,0.5c0.2,0.3,0.4,0.6,0.6,0.9c0.1,0.3,0.1,0.7,0,0.9c-0.7,1.3-0.8,2.6-0.1,4c0.2,0.4,0.3,0.9,0.5,1.4
			c0.1,0.4,0.2,0.7,0.3,1.1c0.2,0.5,0.5,1.1,1.4,1.2c0.7,0.1,0.9,0.2,0.9,1.3c0.1,1.2,0.7,2,1.8,2.2c0.1,0,0.3,0.1,0.4,0.1l0.2,0.1
			c0.6,0.2,0.7,0.3,0.8,0.7c0,0.3,0.1,0.5,0.2,0.8l0.1,0.2c0.1,0.3,0.4,1,1.1,1c0.2,0,0.5-0.1,0.9-0.3c0.6-0.3,1.1-0.7,1.6-1.1
			c0.3-0.2,0.6-0.4,0.9-0.2c0.1,0.1,0.5,0.6,0.5,1.1v0.2c0,0.5,0.2,1,0.6,1.3c0.5,0.4,1.3,0.6,1.8,0.5c0.6-0.1,1.2-0.1,1.8-0.1
			c0.8,0,1.4,0.1,2.1,0.2c0.9,0.2,1.8,0.3,2.7,0.3c0.4,0,0.8,0,1.1,0.1c0.2,0,0.4,0,0.6,0.1c0.5,0.1,1,0.1,1.6,0
			c0.6-0.1,1.1-0.4,1.7-0.6c0.2-0.1,0.4-0.2,0.6-0.3c0,0,0.1,0,0.1-0.1c1,0.8,2.1,0.9,2.9,0.9c0.3,0,0.6,0,1,0
			c1.1-0.1,1.9,0.2,2.5,1c0.2,0.3,0.7,0.5,1,0.6l0.4,0c0.4,0,0.8,0.1,1.2,0.1c0.8,0,1.4-0.1,2-0.4c0.2-0.1,0.4-0.2,0.6-0.4
			c0.3-0.2,0.6-0.4,1-0.5c0.6-0.1,1.3-0.1,1.9,0c0.1,0.1,0.2,0.4,0.3,0.7c0.6,2.2,1.7,4.1,2.6,5.5c0.4,0.6,0.5,1,0.3,1.6
			c-0.3,0.6-0.4,1.2-0.5,1.8c-0.1,0.2-0.1,0.7,0.1,1.1l0.1,0.3c0.8,1.7,1.6,3.5,2.4,5.2c0.4,0.7,0.9,1.3,1.5,1.8
			c0.2,0.2,0.2,0.3,0.1,0.6c-0.1,0.2-0.1,0.5-0.1,0.8c0,0-0.1,0.2-0.1,0.2c-0.2,0-0.5,0-0.7-0.1c-0.8-0.1-1.5-0.1-2.3-0.2
			c-1-0.1-2,0.1-2.4,0.6c-0.3,0.3-0.4,0.7-0.3,1.1c0.1,0.7,0.6,1.4,1,2c0.3,0.5,0.7,0.8,1.2,1.2l0.2,0.2c0.5,0.5,0.8,0.7,0.6,1.3
			c-0.2,0.4-0.2,0.9-0.2,1.4c0,0.6-0.3,1.1-1,1.6c-0.3,0.2-0.5,0.6-0.7,0.9c-0.1,0.2-0.2,0.4-0.3,0.5c-0.2,0.3-0.6,0.7-0.9,0.9
			c-0.4,0.2-0.7,0.5-0.8,0.9c-0.1,0.3,0,0.6,0.2,0.8c0.6,0.8,0.7,1.6,0.4,2.7c-0.2,0.8-0.2,1.6-0.1,2.3c0,0.2,0,0.4,0,0.6
			c0,0.6,0.1,1.1,0.2,1.7c0,0.4,0.1,0.8,0.1,1.2c0,0.4,0.1,0.7,0.1,1.1c0,0.5,0.1,1,0.1,1.5c0.1,0.8,0.5,1.2,1.2,1.3
			c0.7,0.1,1.4,0.3,2,0.5c0,0,0.1,0.1,0.1,0.1c0,0.2,0.1,0.7,0,0.9c-0.3,0.8-0.1,1.6,0.6,2.2c1.4,1,1.8,2.6,2.3,4.2
			c0.1,0.4,0.2,0.8,0.4,1.2c0.1,0.3-0.1,0.7-0.2,1.1c-0.1,0.2-0.2,0.5-0.2,0.7l-0.2,0.8c-0.2,0.8-0.4,1.6-0.5,2.4
			c0,0.3-0.1,0.3-0.6,0.4l-0.6,0.1c-0.7,0.2-1.4,0.3-2,0.5c-0.9,0.3-1.5,1.2-1.3,2.1c0.2,0.8,0.8,1.2,1.6,1.3c0.2,0,0.4,0.1,0.7,0.1
			c-0.2,0.2-0.5,0.3-0.8,0.3c-1.3,0.1-2.6,0.3-3.9,0.5l-1.2,0.2c-0.2,0-0.4,0.1-0.5,0.1c-0.3,0.1-0.5,0.1-0.8,0.1
			c-0.1,0-0.2-0.1-0.2-0.2c-0.2-0.4-0.4-0.7-0.6-1.1c-0.2-0.4-0.5-0.9-0.7-1.3c-0.3-0.5-0.6-1.1-1.2-1.3c-2.1-1.1-4.3-2.3-6.6-3.2
			c-1.1-0.5-2.3-0.5-3.3-0.5c-0.6,0-1.2,0.6-1.5,1c-0.5,0.7-0.9,1.4-1.2,2.3c-0.2,0.6-0.7,0.9-1.3,1.2c-0.2,0.1-0.3,0.2-0.5,0.3
			c-2.3,1.6-4.5,3.1-6.8,4.6c-0.8,0.6-1.7,1.1-2.6,1.6l-0.1,0l-1-0.2c-1.6-0.3-3.1-0.7-4.7-1c-1.6-0.4-3.4,0-5.1,0.4
			c-0.4,0.1-0.8,0.2-1.2,0.3c-1.8,0.4-3.6,0.8-5.4,1.2c-1.4,0.3-2.7,0.6-4,0.9c-0.1,0-0.3-0.1-0.4-0.2c-1.3-1.3-2.6-2.7-3.9-4.1
			l-0.3-0.3c-0.5-0.5-1.2-1-2.2-0.7c-0.2,0.1-0.5,0.1-0.8,0.1c-0.3,0-0.6,0-0.9,0.1c-0.4,0.1-0.8,0.5-1,0.8c-0.4,0.7-0.8,1.3-1.2,2
			c-0.4,0.7-0.8,1.4-1.2,2.1c-0.1,0.1-0.3,0.2-0.5,0.3c-2.7,0.3-5-0.6-7.6-1.8c-1.6-0.7-3.3-1.3-5-1.8c-0.3-0.1-7.6,0.2-8.6,0.1
			c-0.2,0-0.5-0.4-0.8-0.6l-0.2-0.2c-0.8-0.5-1.5-0.5-2.2,0c-1.5,1.1-2.9,2.1-4.4,2.9c-0.6,0.3-1.6,0.4-2.3,0.2
			c-0.6-0.2-1.3-0.1-1.8,0l-0.3,0.1c-0.5,0.1-1,0.2-1.5,0.2c-0.6,0-1-0.1-1.5-0.3c-1.2-0.6-2.6-0.4-3.9-0.1
			c-1.1,0.3-2.2,0.3-3.1,0.4c-1.5,0.1-3.1,0.1-4.6,0.1c-0.7,0-1.4,0-2.1,0l-1.7,0c-1.6,0-3.1,0.1-4.7,0.1c-0.4,0-0.8-0.1-1.1-0.3
			c-0.8-0.4-1.7-0.5-2.5,0c-0.4,0.2-0.8,0.4-1.3,0.6c-0.1,0.1-0.3,0.1-0.4,0.2L184,173c-0.4-0.5-0.8-0.9-1.3-1.4
			c-0.5-0.6-1.2-0.7-1.8-0.3c-0.8,0.5-1.5,0.4-2.3-0.4c-0.8-0.8-1.8-0.9-2.5-0.9c-1,0-2-0.1-3.1-0.3c-0.2,0-0.4-0.2-0.6-0.4
			c-1.1-1.1-2.1-2.1-3.2-3.2c-1.7-1.7-3.5-3.5-5.2-5.2c-0.7-0.7-1.5-1.2-2.3-1.6l-0.1-0.1c-0.4-0.2-0.8-0.5-1.2-0.7
			c-0.4-0.2-0.7-0.4-1.1-0.6c-1.2-0.7-2.2-0.8-3.4-0.4c-0.6,0.2-1.2,0.4-1.7,0.5c-0.6,0.2-1.1,0.3-1.7,0.5c-0.4,0.2-0.8,0.6-0.9,1
			c-0.3,0.8-0.6,1.6-0.8,2.4c-0.1,0.3-0.2,0.4-0.6,0.4c-0.9,0.2-1.9,0.4-2.8,0.6l-1,0.2c-0.1-0.2-0.2-0.5-0.3-0.7
			c-0.3-0.8-0.9-0.9-1.1-0.9c-0.3,0-0.7,0.2-1,0.5l-0.1,0.1c-0.1,0.1-0.3,0.2-0.3,0.4c-0.1,0.2-0.1,0.2-0.2,0.2
			c-0.1,0-0.3-0.1-0.4-0.1l-0.5-0.2c-0.5-0.2-0.9-0.4-1.4-0.6c-1-0.4-1.8-0.2-2.4,0.7c-0.3,0.3-0.5,0.7-0.8,1
			c-0.4,0.6-0.9,1.2-1.3,1.7c-0.5,0.6-0.6,1.4-0.3,2.4c0.2,0.8,0.4,1.8,0.5,2.7c0,0.3,0,0.6-0.1,1c0,0.1,0,0.3-0.1,0.4
			c-0.6,0.1-1.2,0.2-1.8,0.3c-1.7,0.3-3.5,0.6-5.2,1c-0.9,0.2-1.7,0.5-2.6,0.8c-0.8,0.3-1.6,0.5-2.4,0.7c-0.6,0.1-1.5,0.1-2.3,0
			l-0.4,0c-0.3,0-0.6-0.1-0.9-0.2c-0.3-0.1-0.6-0.2-0.9-0.2c-2-0.3-4-0.5-5.9-0.8c-1-0.1-2-0.2-3-0.3l-2.2-0.2
			c-0.8-0.1-1.5-0.2-2.3-0.3c-0.8-0.1-1.2,0.2-1.4,0.4c-0.2,0.2-0.3,0.6,0,1.3c0.4,1,0.4,1-0.4,1.7l-0.1,0.1c0,0-0.1,0-0.3,0
			c-0.2,0-0.5,0-0.7-0.1l-0.2,0c-1.6-0.2-3.2-0.5-4.9-0.7l-0.3-0.1c-0.5-0.1-1-0.2-1.5-0.3l-0.5-0.1c-0.1-0.7-0.4-1.6-1.4-1.6
			c-0.3,0-0.7,0.1-1.3,0.4c-0.7,0.3-1.3,0.3-2.3-0.2c-1.2-0.5-2.1-0.5-2.9,0c-0.4,0.2-0.7,0.2-1.1,0c-0.6-0.3-1.2-0.5-1.7-0.7
			c-0.1,0-0.2-0.1-0.3-0.1c0-0.1,0.1-0.1,0.1-0.2c0.4-0.5,1-1,1.3-1.6c0.2-0.5,0.5-1.1,0.5-1.6v-0.3c0-1.6-1.5-2-2.4-2.2
			c-0.2-0.1-0.5-0.1-0.7-0.2c-0.5-0.2-1-0.3-1.5-0.4c-0.7-0.2-1.3-0.4-1.9-0.6c-0.5-0.2-1-1.5-1.3-1.9c-0.7-0.9-1.6-2.6-3-2.6h-0.2
			c-0.3,0-0.6,0.7-0.9,0.7c-0.3,0-0.6,0.3-0.9,0.3c-0.7,0-1.5,0.3-2.3,1.1c-0.2,0.2-0.6,0.5-0.9,0.5c-0.1-0.1-0.2-0.1-0.4-0.2
			c-0.4-0.2-0.8-0.4-1.2-0.6c-0.4-0.2-0.5-0.2-0.5-0.6c0-0.7,0-1.1-0.3-1.4c-0.3-0.3-0.8-0.3-1.4-0.3c-0.2,0-0.5,0-0.7,0
			c-0.6,0-3.9-1.9-4.4-2.4c-0.4-0.4-1.3-0.7-1.9-0.6c-1.7,0.5-3.5,1.1-5.2,1.7l-1.4,0.5c-0.6,0.2-1.3,0.4-1.9,0.7
			c-0.6,0.2-1.2,0.4-1.9,0.7c-0.2,0.1-0.4,0.1-0.6,0.1c-2.2,0-4.3,0-6.5,0c-0.3,0-0.6-0.1-1-0.1c-0.4,0-0.7-0.1-1.1-0.1h-0.1
			c-0.5,0-1,0-1.4,0.3c-0.5,0.4-0.8,0.2-1.3-0.3c-0.5-0.5-1.1-1.1-1.6-1.7l-0.4-0.5c0,0,0-0.1,0.1-0.1c0.2-0.3,0.5-0.7,0.5-1.1
			c0-1.1-0.1-2.2-0.3-3.3l0-0.2c0-0.3-0.3-0.6-0.5-0.8l-0.1-0.1c-0.4-0.4-0.7-0.9-1.1-1.3c-0.6-0.7-1.4-0.9-2.1-0.6
			c-0.1,0-0.2,0.1-0.4,0.1c0.1-0.4,0.1-0.8,0.2-1.2c0.1-0.3,0.1-0.6-0.1-0.8c-0.2-0.3-0.5-0.4-0.8-0.5c-0.3-0.1-0.7-0.1-1,0
			c-0.6,0.1-1.3,0.3-1.6-0.5c-0.2-0.3-0.6-0.4-0.9-0.4l-0.1,0c-0.1,0-0.3,0-0.4,0.1c0,0-0.1,0-0.1,0c-0.2,0-0.4,0.1-0.5,0.1
			c-0.3,0.1-0.8,0.1-0.8,0.1c-0.1-0.1-0.2-0.4-0.3-0.7c-0.1-0.2-0.1-0.4-0.2-0.6c-0.3-0.7-0.7-0.9-1.1-0.9c-0.3,0-0.7,0.2-1,0.5
			c-0.4,0.3-0.8,0.6-1.3,0.9l0.1-0.3c0.2-0.9,0.3-1.7,0.5-2.5c0-0.1,0.1-0.6-0.2-0.9c-0.7-0.8-1.7-1.8-2.8-2.8
			c-0.1-0.1-0.3-0.2-0.5-0.2c-0.1,0-0.6,0-0.8,0.3c-0.5,0.7-0.9,1.4-1.4,2.2c-0.2,0.3-0.7-1.6-0.7-3c0-0.1-0.2-0.4,0.1-0.6l-0.1-0.1
			c0.5-0.4,1-0.9,0.7-2c-0.2-0.7-0.3-1.5-0.3-2.4c0-0.4-0.1-0.8-0.1-1.1l-0.1-1.2c-0.1-1.3-0.2-2.7-0.4-4c-0.1-0.4-0.4-1-0.8-1.2
			c-1.9-0.9-3.7-1.8-5.6-2.8l-0.7-0.3c-0.6-0.3-1.2-0.5-1.8-0.8l0-1.2H8c1.9,0,2.3-1,2.4-2.8c0.1-1.2,0.2-2.7,0.3-3.8
			c0-0.2,0.4-0.7,0.5-0.8c0.2-0.2,0.4-0.3,0.5-0.5c0.4-0.2,0.7-0.5,1-0.9c0.5-0.8,1.3-1.2,2.6-1.3c1.5,0,2.9-0.1,4.4-0.2
			c1.1-0.1,1.6-0.5,1.6-1.7c0-0.2,0-0.4,0-0.6c0-0.5,0-1.1,0-1.6c-0.1-1.1,0.2-1.7,1-2.1c0.4-0.2,1-0.1,1.1,0.2
			c0.1,0.1,0.1,0.2,0.2,0.3c0.1,0.1,0.1,0.2,0.2,0.3c0.1,0.2,0.3,0.6,0.7,0.6c0.2,0,0.4-0.2,0.5-0.3l0.6,0.1
			c0.7,0.1,1.4,0.2,2.1,0.2l0.1,0c0.3,0,0.7-0.1,1-0.3c0.6-0.4,0.7-1.4,0.7-1.8c0-0.8-0.1-1.7-0.7-2.2c-0.2-0.3-0.5-0.4-0.8-0.6
			c-0.5-0.2-0.7-0.4-0.7-0.8c0-0.8,0-1.6,0.1-2.4c0.2-1,0-1.6-1.1-2.1c-0.2-0.1-0.3-0.2-0.3-0.2c0,0,0.1-0.1,0.2-0.3
			c0.4-0.4,0.6-0.8,0.6-1.2c0-0.6-0.5-1-0.8-1.2c-0.1-0.1-0.2-0.1-0.2-0.2c1.1-0.7,1-1.8,0.9-2.8c0-0.4,0.1-0.6,0.4-0.9
			c0.7-0.5,1-1.2,1-2.1c0-0.4,0.1-0.8,0.3-1.2c0.5-1.1,1.1-2.3,1.8-3.7c0.1-0.1,0.2-0.2,0.3-0.3c0.2-0.2,0.3-0.4,0.4-0.6
			c0.2-0.4,0.3-0.8,0.4-1.2c0.1-0.3,0.2-0.6,0.3-0.9c0.1-0.2,0.2-0.3,0.2-0.3c1.5-0.3,2.3-1.5,2.9-2.6c0.6-1.1,1.5-1.6,2.9-1.8
			c1.2-0.1,2.6,0.3,3.7,1l0.3,0.2l0.4-0.5c0.2-0.2,0.3-0.3,0.5-0.5c0.1-0.2,0.4-0.4,0.3-0.7c-0.1-0.5,0.1-0.9,0.5-1.5
			c0.1-0.1,0.3-0.4,0.3-0.7c-0.2-0.8,0.2-1,1.1-1.3l0.3-0.1c1.4-0.5,1.6-1.6,1.6-2.3c0-0.3,0.1-0.4,0.5-0.6c0.4-0.2,0.9-0.6,1-1.1
			c0.2-0.4,0.2-0.9,0.3-1.3l0.1-0.4c0.1-0.3,0.2-0.4,0.7-0.5c0.1,0,0.2,0,0.3-0.1c0.2-0.1,0.5-0.1,0.7-0.2c0.3-0.1,0.6-0.1,0.9-0.2
			c0.7-0.2,0.7-0.7,0.7-1.2c0-0.9,0-1.8,0.1-2.7c0-0.4,0.1-0.9,0.1-1.3c0-0.2,0-0.4,0-0.7c0-0.3,0-0.6,0-0.9c0.2-1,0.4-1,1-1l0.3,0
			c0.4,0,0.9-0.1,1.5-0.3c0.4-0.1,0.6-0.6,0.7-0.9c0.2-0.7,0.6-1.2,1.1-1.7c0.2-0.3,0.4-0.5,0.6-0.8c0.2-0.3,0.4-0.5,0.6-0.7
			c0,0,2.5-0.6,2.7-0.6c1.3,0.1,2.1-0.4,2.6-1.5c0,0,0.2-0.1,0.4-0.2c0.8-0.2,1.5-0.4,2.3-0.4c1.1-0.1,1.5-0.9,1.7-1.5l0.2-0.7
			c0.3-0.8,0.5-1.5,0.7-2.3c0.2-0.8,0.7-1.3,1.2-1.9c0.3-0.3,0.5-0.6,0.7-0.9l0.4-0.5c0.5-0.8,1.1-1.5,1.8-2.1
			c1.1-0.9,1.2-1.9,1.3-2.9c0.1-1,0.3-2,0.4-3l0-0.2c0,0,0.1-0.1,0.1-0.1l0.1,0c0.1,0,0.2-0.1,0.3-0.2c1.4-1.9,2.7-3.8,4.2-5.7
			l0.3-0.5l0.2,0.1c0.4,0.1,0.9,0.3,1.4,0.4c0.9,0.3,1.4,0,1.6-0.9c0.1-0.6,0.3-1,0.4-1.6c0-0.2,0.1-0.4,0.1-0.4h0.7
			c1.4,0,1.9-0.6,2.1-2c0-0.1,0.1-0.3,0.1-0.3c1.3-0.3,1.6-1.6,1.7-2c0.1-0.5,0.3-0.6,1-0.7c2-0.1,4-0.3,6-0.4l1-0.1
			c0.2,0,0.3-0.1,0.4-0.2c0.1,0,0.3,0,0.4,0c0.4,0,0.7,0,0.9,0.1c0.7,0.4,1.1,0.6,1.6,0.6c0.6,0,1-0.4,1.7-1.1
			c0.7-0.7,1.6-1,2.5-1.2L104,19c0.7-0.2,1.2-0.5,1.3-0.9c0.2-0.4,0.1-1-0.3-1.6c-0.3-0.4-0.2-0.6,0.2-1.2c0.6-0.8,1.5-1,2.5-0.7
			c1.3,0.3,2.1-0.3,2.6-1.1c0.5-0.6,0.9-1.2,1.3-1.8c0.3-0.5,0.7-0.9,1-1.4c0,0,0.2-0.1,0.2-0.1c0.1,0,0.1,0,0.2-0.1l0.3-0.1
			c0.6-0.2,1.3-0.5,1.7-1.3c0.4-0.8,1.4-1,2.3-0.6c0.1,0,0.2,0.1,0.3,0.2c0.1,0.1,0.2,0.1,0.4,0.2c1,0.5,1.8,0.6,2.7,0.3
			c1.4-0.5,2.8-1.1,3.7-2.6c0.4-0.8,1.1-1,2.3-0.7c0.9,0.2,1.7,0.1,2.7-0.4c1.1-0.5,2-0.5,2.9,0.2c1.4,1,2.9,1,4.4,1l0.7,0
			c0.6,0,1.3,0.2,1.9,0.5c0,0,0.1,0.1,0.2,0.2c0.1,0.1,0.2,0.3,0.5,0.4c0.4,0.3,0.8,0.5,1.4,0.6c0.5,0,0.8-0.6,1-0.9
			c1-1.7,2.1-3,3.4-3.9c0.4-0.2,1-0.2,1.6,0.2l0.4,0.3c0.7,0.4,1.4,0.9,2,1.4c0.3,0.2,0.5,0.4,0.7,0.6l0,0L150.2,6
			c-0.3,0.5-0.6,0.9-0.8,1.4l-0.1,0.1c-0.1,0.1-0.1,0.2-0.2,0.3c-0.5,0.3-0.7,0.9-0.7,1.6c0.1,0.7,0.5,1.4,1.1,1.6
			c1,0.4,2.1,0.8,3.1,1.2c0.3,0.1,0.7,0.3,1,0.4c0.4,0.2,0.8,0.4,1.2,0.5c1.3,0.5,1.7-0.2,2-0.9c0.4-1,0.9-2.1,1.4-3.2
			c0,0,0.2-0.1,0.2-0.1c0.6,0.1,1.1,0.3,1.6,0.6c0.1,0,0.2,0.2,0.2,0.3c0,0.8,0.3,1.4,0.9,1.9c0.2,0.1,0.3,0.3,0.5,0.5l0.1,0.1
			c0.7,0.9,1.6,0.9,2.3,0c0.2-0.3,0.4-0.6,0.7-0.8l0.2-0.3c0.6,0,1,0.4,1.4,1.1c0.4,0.7,1,1.1,1.8,1.2c0.2,0,0.6,0.1,0.6,0.5
			c0.4,2,2,2.1,3.2,2.2c0.7,0,1.4,0.1,2,0.2c0.2,0,0.3,0.1,0.3,0.1c1.1,1,2.4,1,3.7,1c0.4,0,0.7,0,1,0.1c0.4,0,0.8,0.3,1.1,0.5
			l0.2,0.1c0.1,0.1,0.3,0.3,0.4,0.4c0,0.1,0.1,0.1,0.1,0.2c0,0.5-0.3,0.5-0.9,0.6c-0.2,0-0.4,0.1-0.6,0.1c-0.5,0.2-0.9,0.3-1.4,0.4
			c-0.5,0.1-0.9,0.3-1.4,0.4c-0.4,0.1-0.7,0.6-0.7,0.9c-0.1,0.8-0.2,1.6-0.2,2.4c0,0.4-0.1,0.5-0.6,0.7c-0.4,0.1-0.9,0.3-1.3,0.4
			c-0.6,0.2-1.2,0.3-1.8,0.5l-0.3,0.1c-0.7,0.2-1.4,0.5-2.1,0.8c-0.5,0.3-0.8,1-0.9,1.4c-0.1,0.8-0.1,1.6,0,2.5c0,0.2,0,0.4,0,0.6
			c-0.1,0-0.2,0-0.4,0c-0.5,0-1.1,0-1.6,0c-0.9-0.1-1.8,0.2-2.4,0.9c-0.6,0.6-0.9,1.5-0.8,2.3c0.1,0.8,0.1,1.7,0.8,2.4
			c0.8,0.9,2.6,1.4,3.6,0.9c0.6-0.3,1.4-0.6,2.1-1.1c0.6-0.4,1.4-0.2,2,0.1c0.9,0.4,1.7,0.8,2.4,1.3c0.4,0.2,0.8,0.4,1.2,0.4
			c0.6,0,1.1-0.2,1.6-0.4c0.5-0.2,0.7-0.2,1.2,0c0.4,0.2,1,0.1,1.5,0c0.2,0,0.5-0.1,0.7-0.1l0.4,0c0.5,0,1,0,1.4,0.1l0.4,0.1
			c0.6,0.1,1.1,0.3,1.7,0.3c0.7,0,1.3-0.2,1.9-0.7c0.4,0.5,1.1,0.8,1.8,0.8c0.6,0,1.1-0.2,1.5-0.6c0.2-0.2,0.4-0.3,0.5-0.3
			c0.2,0,0.3,0.1,0.5,0.1l0.2,0.1c0.3,0.1,0.6,0.3,0.9,0.5c0.3,0.2,0.7,0.4,1.1,0.6c0.8,0.3,1.7,1,2.5,1.1c1.4,0.1,2.8,0.9,4.3,0.9
			h0.2c0.6,0,1.2-0.7,1.7-0.8l0.3-0.4c0.3-0.1,0.6-0.3,1-0.4c0.2,0,0.3-0.2,0.6-0.2l0.6,0.2c0.6,0.2,1.3,0.5,1.9,0.8
			c0.3,0.1,0.6,0.4,0.7,0.7c0.3,0.5,0.6,0.7,1.1,0.7c0.2,0,0.5-0.1,0.7-0.1c0.2-0.1,0.4-0.2,0.6-0.3c0.1-0.1,0.3-0.1,0.4-0.2
			c0.6-0.2,1.1-0.2,1.5,0.3c0.1,0.2,0.3,0.3,0.5,0.4c0.2,0.1,0.4,0.3,0.5,0.4c0.2,0.2,0.3,0.6,0.4,1c0.1,0.4,0.3,1.5,1.3,1.5
			c0.3,0,0.7-0.1,1.2-0.5c0.7-0.5,1.4-0.9,2.1-1.4l0.3-0.2c0.6,0.7,1.4,0.8,2.2,0.8c0.4,0,0.9,0.2,1.3,0.3l0.3,0.1
			c0,0,0.1,0.1,0.2,0.3c0.4,0.8,1,1.2,2,1c0.3-0.1,0.7-0.1,1-0.1l0.1,0l0.2,0.5c0.3,0.8,0.8,1,1.2,1c0.2,0,0.4,0,0.6-0.1
			c1.1-0.4,2.2-0.4,3.3,0l0.2,0.1c1.1,0.5,2.3,0.9,3.6,0.9l0.4,0c0.3,0,0.7,0,1,0.1c0.2,0,0.3,0,0.5,0.1c0.9,0.1,1.6-0.3,1.9-1.2
			c0.1-0.4,0.3-0.9,0.4-1.4c0.2-1,0.8-1.8,1.8-2.6c1.1-0.9,0.9-1.9,0.8-2.8l0-0.1c0-0.2,0-0.4-0.1-0.6l0.8,0.2
			c1.2,0.3,2.3,0.5,3.4,0.8c0.4,0.1,0.8,0,1.2-0.1l0.2,0c1.3-0.2,2.3,0.1,3,1.2c0.3,0.4,0.9,0.8,1.5,1c0.6,0.1,1.1,0.2,1.5,0.7
			c0.2,0.2,0.4,0.3,0.6,0.3c0.1,0,0.2,0,0.3,0l2.7,0.9c0,0,0,0.1,0,0.1c0,0.9-0.1,2.2,1.4,2.5c0.1,0,0.2,0.1,0.4,0.1
			C257.7,46,258.1,45.3,258.5,44.9z"/>
		<circle cx="81.9" cy="84.8" r="4.9"/>
	</g>
</g>
</svg>
