<?xml version="1.0" encoding="utf-8"?>
<!-- Generator: Adobe Illustrator 18.1.1, SVG Export Plug-In . SVG Version: 6.00 Build 0)  -->
<!DOCTYPE svg PUBLIC "-//W3C//DTD SVG 1.1//EN" "http://www.w3.org/Graphics/SVG/1.1/DTD/svg11.dtd">
<svg version="1.1" id="Layer_1" xmlns="http://www.w3.org/2000/svg" xmlns:xlink="http://www.w3.org/1999/xlink" x="0px" y="0px"
	 viewBox="0 0 100 80.3" style="enable-background:new 0 0 100 80.3;" xml:space="preserve">
<g>
	<path d="M84.4,80.3c-0.9,0-1.8-0.3-2.4-1c-1.2-1.2-1.6-3.2-1.6-4.7c0.1-4.3,0-8.6,0-13l0-10.9h-1.6l0,10.9c0,4.3,0,8.6,0,13
		c0,1.5-0.4,3.5-1.6,4.7c-0.9,0.9-2.2,1.2-3.6,0.8l-0.1-0.1c-1.8-1-2.6-2.6-2.5-5c0.1-3.5,0-7.1,0-10.6c0-1.8,0-3.5,0-5.3v-4.1
		c0.2-7.9,0.7-25.1,0.9-29c0,0,0,0.1-0.1,0.1l-1.5,4.1c-1.4,3.8-2.8,7.6-4.1,11.4c0,0-1.2,3.4-3.6,3.4c-0.3,0-0.5,0-0.8-0.1
		c-1.1-0.3-1.8-0.9-2.2-1.7c-0.4-0.8-0.4-1.9,0-3c0.7-1.8,1.3-3.6,2-5.3c1.5-3.9,3-8,4.4-12c1.6-4.5,5.5-7.5,10-7.5l1.2,0l2.3,0
		l2.4,0l1.2,0c4.5,0,8.5,3,10,7.5c1.4,4,2.9,8.1,4.4,12c0.7,1.8,1.3,3.5,2,5.3c0.4,1.2,0.4,2.2,0,3.1c-0.4,0.8-1.1,1.4-2.2,1.7
		c-0.3,0.1-0.5,0.1-0.8,0.1l0,0c-2.4,0-3.6-3.4-3.6-3.4c-1.3-3.8-2.7-7.6-4.1-11.4l-1.5-4.1c0,0,0-0.1,0-0.1
		c0.2,3.9,0.6,21.1,0.9,29v4.1c0,1.8,0,3.5,0,5.3c0,3.5,0,7.1,0,10.6c0.1,2.5-0.7,4-2.5,5l-0.1,0.1C85.2,80.3,84.8,80.3,84.4,80.3z
		 M77.7,49.6h4l0,12.1c0,4.3,0,8.7,0,13c0,1.3,0.3,2.9,1.2,3.8c0.6,0.6,1.4,0.8,2.4,0.5c1.4-0.8,1.9-1.9,1.8-3.9
		c-0.1-3.5,0-7.1,0-10.6c0-1.8,0-3.5,0-5.3v-4.1c-0.2-7.9-0.8-28.8-0.9-29.6c-0.1-0.5,0-1,0.2-1.2c0.5-0.6,1.5-0.3,1.8,0.5
		c0.1,0.1,0.1,0.3,0.2,0.4c0.1,0.2,0.2,0.4,0.2,0.6l1.5,4.1c1.4,3.8,2.8,7.6,4.1,11.4c0.2,0.6,1.4,3,2.9,2.6
		c0.7-0.2,1.3-0.6,1.5-1.1c0.3-0.7,0.2-1.5,0-2.1c-0.7-1.8-1.3-3.5-2-5.3c-1.5-3.9-3-8-4.4-12.1c-1.4-4.1-4.9-6.7-8.9-6.7l-1.2,0
		l-2.3,0l-2.4,0l-1.2,0c-4,0-7.5,2.7-8.9,6.7c-1.4,4.1-3,8.1-4.4,12.1c-0.7,1.8-1.3,3.5-2,5.3c-0.2,0.6-0.4,1.4,0,2.1
		c0.2,0.5,0.8,0.9,1.5,1.1c1.5,0.5,2.7-1.9,2.9-2.6c1.3-3.8,2.7-7.6,4.1-11.4l1.5-4.1c0.1-0.2,0.2-0.4,0.2-0.6
		c0.1-0.2,0.1-0.3,0.2-0.4c0.3-0.8,1.3-1.1,1.8-0.5c0.2,0.3,0.3,0.7,0.2,1.3c-0.1,0.8-0.7,21.6-0.9,29.6v4.1c0,1.8,0,3.5,0,5.3
		c0,3.5,0,7.1,0,10.6c0,2,0.5,3.1,1.8,3.9c1,0.2,1.8,0.1,2.4-0.5c0.9-0.9,1.2-2.5,1.2-3.8c-0.1-4.3,0-8.6,0-13L77.7,49.6z
		 M51.7,80.3c-0.7,0-1.2-0.2-1.7-0.7c-0.8-0.8-1.1-2.2-1.1-3.1c0-2.8,0-5.5,0-8.3l0-3.7h-0.6l0,3.7c0,2.8,0,5.5,0,8.3
		c0,1-0.3,2.3-1.1,3.1c-0.6,0.6-1.5,0.9-2.5,0.6l-0.1-0.1c-1.6-0.9-1.7-2.4-1.7-3.4c0-2.3,0-4.5,0-6.8c0-1.1,0-2.3,0-3.4v-2l-1.5,0
		c-0.5,0-1,0-1.6,0c-0.7,0-1.2-0.2-1.5-0.6c-0.4-0.4-0.5-0.9-0.5-1.6c0-0.5,0.1-1,0.3-1.5l1.5-4.3c-0.5,0.7-1.4,1.4-2.5,1.1
		c-0.7-0.2-1.3-0.6-1.5-1.2c-0.3-0.6-0.3-1.3,0-2.1c0.4-1.1,0.9-2.3,1.3-3.4c1-2.5,1.9-5.1,2.8-7.7c1-3,3.6-4.9,6.6-5l0.8,0l1.5,0
		l1.5,0l0.8,0c3,0,5.6,2,6.6,5c0.9,2.6,1.9,5.2,2.8,7.7c0.4,1.1,0.9,2.3,1.3,3.4c0.3,0.8,0.3,1.5,0,2.1c-0.3,0.6-0.8,1-1.5,1.2
		c-0.2,0.1-0.4,0.1-0.6,0.1l0,0c-0.8,0-1.5-0.6-1.9-1.2c0.5,1.4,1,2.8,1.5,4.3c0.2,0.5,0.3,1,0.3,1.5c0,0.7-0.1,1.2-0.5,1.6
		c-0.4,0.4-0.9,0.6-1.5,0.6c-0.5,0-1,0-1.6,0l-1.5,0v2c0,1.1,0,2.3,0,3.4c0,2.3,0,4.5,0,6.8c0,1-0.1,2.5-1.7,3.4l-0.1,0.1
		C52.3,80.3,52,80.3,51.7,80.3z M47.2,63.3h3l0,4.9c0,2.8,0,5.5,0,8.3c0,0.8,0.2,1.8,0.7,2.3c0.3,0.3,0.7,0.4,1.3,0.3
		c0.8-0.5,1.1-1.1,1.1-2.3c0-2.3,0-4.5,0-6.8c0-1.1,0-2.3,0-3.4v-3.2l2.7,0c0.5,0,1,0,1.5,0c0.3,0,0.6-0.1,0.7-0.2
		c0.1-0.1,0.2-0.4,0.2-0.7c0-0.4-0.1-0.8-0.3-1.2c-1.2-3.5-2.4-6.9-3.7-10.4L52.7,46c-0.1-0.3-0.2-0.7-0.3-1c-0.1-0.5,0.1-0.8,0.2-1
		c0.4-0.5,1.5-0.3,1.7,0.3l0.1,0.3c0.1,0.1,0.1,0.2,0.2,0.4l1.3,3.6c0.8,2.1,1.5,4.2,2.3,6.4c0.2,0.6,0.9,1.7,1.6,1.5
		c0.4-0.1,0.7-0.3,0.8-0.6c0.2-0.4,0.1-0.8,0-1.2c-0.4-1.1-0.8-2.2-1.3-3.4c-1-2.5-1.9-5.2-2.9-7.8c-0.9-2.5-3-4.1-5.5-4.2l-0.8,0
		l-1.5,0l-1.5,0l-0.8,0c-2.5,0-4.7,1.6-5.5,4.2C40,46.2,39,48.8,38,51.3c-0.4,1.1-0.9,2.3-1.3,3.4c-0.1,0.3-0.2,0.8,0,1.2
		c0.1,0.3,0.4,0.5,0.8,0.6c0.8,0.3,1.4-1.1,1.6-1.5c0.9-2.5,1.8-4.9,2.7-7.4l0.9-2.6c0.1-0.1,0.1-0.3,0.2-0.4l0.1-0.3
		c0.3-0.6,1.3-0.9,1.7-0.3c0.1,0.2,0.3,0.5,0.2,0.9c-0.1,0.4-0.2,0.7-0.3,1.1l-5.4,15.1c-0.1,0.4-0.2,0.9-0.2,1.2
		c0,0.3,0,0.6,0.2,0.7c0.1,0.1,0.4,0.2,0.7,0.2c0.5,0,1,0,1.5,0l2.7,0v3.2c0,1.1,0,2.3,0,3.4c0,2.3,0,4.5,0,6.8
		c0,1.2,0.3,1.8,1.1,2.3c0.5,0.1,1,0,1.3-0.3c0.5-0.5,0.7-1.5,0.7-2.3c0-2.8,0-5.6,0-8.3L47.2,63.3z M23,79.6
		c-0.9,0-1.6-0.3-2.2-0.9c-1.1-1.1-1.5-2.9-1.4-4.3c0-3.9,0-7.9,0-11.8l0-5.6H18l0,5.6c0,3.9,0,7.9,0,11.8c0,1.4-0.3,3.2-1.4,4.3
		c-0.8,0.9-2,1.1-3.3,0.8l-0.1-0.1c-2.1-1.2-2.4-3.1-2.3-4.7c0.1-3.2,0-6.5,0-9.7c0-1.6,0-3.2,0-4.9v-3.1l-2.4,0c-0.7,0-1.5,0-2.2,0
		c-0.9,0-1.6-0.3-2-0.8c-0.5-0.5-0.7-1.2-0.6-2.1c0-0.6,0.2-1.4,0.4-2.1l7.7-21.6c0.2-0.4,0.3-0.9,0.4-1.3c0-0.1,0-0.2,0-0.2
		c0,0.2-0.1,0.4-0.2,0.5c-0.1,0.2-0.1,0.3-0.2,0.5l-1.3,3.7c-1.3,3.5-2.5,7-3.8,10.5c0,0-1.1,3.2-3.4,3.2c-0.2,0-0.5,0-0.7-0.1
		c-1-0.3-1.7-0.8-2.1-1.6c-0.4-0.8-0.4-1.7,0-2.8c0.6-1.6,1.2-3.2,1.8-4.9c1.4-3.6,2.8-7.3,4.1-11c1.4-4.2,5.1-6.9,9.2-6.9l1.1,0
		l2.2,0l2.2,0l1.1,0c4.2,0,7.8,2.7,9.2,6.9c1.3,3.7,2.7,7.5,4.1,11.1c0.6,1.6,1.2,3.2,1.8,4.8c0.4,1.1,0.4,2.1,0,2.8
		c-0.4,0.7-1.1,1.3-2.1,1.6c-0.2,0.1-0.5,0.1-0.7,0.1c-2.2,0-3.3-3.1-3.4-3.2c-1.1-3-2.2-6-3.3-9.1c-0.6-1.7-1.2-3.4-1.9-5.1
		c-0.1-0.2-0.1-0.3-0.2-0.5c-0.1-0.1-0.1-0.3-0.2-0.4c0,0,0,0,0,0c0.1,0.4,0.2,0.9,0.4,1.3l2.2,6.2c1.8,5.1,3.6,10.3,5.5,15.4
		c0.3,0.7,0.4,1.4,0.4,2.1c0,0.9-0.2,1.6-0.6,2.1c-0.5,0.5-1.1,0.8-2,0.8c-0.7,0-1.5,0-2.2,0l-2.4,0v3.1c0,1.6,0,3.2,0,4.9
		c0,3.2,0,6.5,0,9.7c0,1.5-0.2,3.4-2.3,4.7l-0.1,0.1C23.7,79.6,23.4,79.6,23,79.6z M16.8,55.8h3.8l0,6.8c0,3.9,0,7.9,0,11.8
		c0,1.2,0.3,2.7,1.1,3.4c0.5,0.5,1.2,0.7,2.1,0.5c1.2-0.7,1.7-1.8,1.7-3.6c-0.1-3.2,0-6.5,0-9.7c0-1.6,0-3.2,0-4.9v-4.3l3.6,0
		c0.7,0,1.4,0,2.2,0c0.5,0,0.9-0.1,1.2-0.4c0.2-0.2,0.3-0.6,0.3-1.2c0-0.6-0.2-1.2-0.4-1.8c-1.8-5.1-3.6-10.3-5.5-15.4l-2.2-6.2
		c-0.2-0.5-0.3-1-0.4-1.5c-0.1-0.6,0.1-0.9,0.2-1.1c0.5-0.6,1.8-0.4,2.1,0.4c0,0.1,0.1,0.3,0.2,0.4c0.1,0.2,0.2,0.4,0.2,0.5
		c0.6,1.7,1.2,3.4,1.9,5.1c1.1,3,2.2,6,3.3,9.1c0.3,0.8,1.4,2.7,2.6,2.3c0.7-0.2,1.1-0.5,1.3-1c0.3-0.6,0.2-1.4,0-1.9
		c-0.6-1.6-1.2-3.2-1.8-4.8c-1.4-3.6-2.8-7.4-4.1-11.1c-1.3-3.7-4.5-6.1-8.1-6.1l-1.1,0l-2.2,0l-2.2,0l-1.1,0
		c-3.7,0-6.8,2.4-8.1,6.1C6,31.1,4.6,34.8,3.2,38.4C2.6,40,2,41.6,1.4,43.3c-0.2,0.5-0.3,1.3,0,1.9c0.2,0.4,0.7,0.8,1.3,1
		c1.2,0.4,2.3-1.5,2.6-2.3c1.2-3.5,2.5-7,3.8-10.5l1.3-3.7c0.1-0.2,0.2-0.4,0.2-0.5c0.1-0.1,0.1-0.3,0.2-0.4c0.3-0.8,1.5-1,2.1-0.4
		c0.2,0.2,0.3,0.6,0.2,1.1c-0.1,0.5-0.3,1-0.4,1.5L5,52.5c-0.2,0.6-0.3,1.3-0.4,1.8c0,0.5,0.1,0.9,0.3,1.2c0.2,0.2,0.6,0.4,1.2,0.4
		c0.7,0,1.4,0,2.2,0l3.6,0v4.3c0,1.6,0,3.2,0,4.9c0,3.2,0,6.5,0,9.7c0,1.8,0.4,2.8,1.7,3.6c0.9,0.2,1.6,0.1,2.1-0.5
		c0.8-0.8,1.1-2.3,1.1-3.4c0-3.9,0-7.9,0-11.8L16.8,55.8z M48.8,38.2h-0.2c-1.3,0-2.6-0.6-3.4-1.5c-0.9-1-1.4-2.3-1.4-3.7
		c0.1-2.6,2.3-4.7,4.9-4.7c2.6,0,4.8,2.1,4.9,4.7c0,1.4-0.4,2.7-1.4,3.6C51.3,37.6,50.1,38.1,48.8,38.2L48.8,38.2z M48.7,29.6
		c-2,0-3.7,1.6-3.7,3.5c0,1.1,0.3,2.1,1,2.8c0.7,0.7,1.6,1.1,2.6,1.1h0.2c1,0,1.9-0.4,2.6-1.1c0.7-0.7,1.1-1.7,1-2.8
		C52.3,31.1,50.7,29.6,48.7,29.6z M18.8,19.5h-0.3c-1.8,0-3.5-0.8-4.7-2c-1.3-1.3-1.9-3.1-1.9-5C12,8.9,15,6,18.6,6
		c3.6,0,6.7,2.9,6.8,6.4c0.1,1.9-0.6,3.7-1.9,5C22.3,18.7,20.6,19.4,18.8,19.5L18.8,19.5z M18.6,7.2c-3,0-5.5,2.4-5.5,5.3
		c0,1.6,0.5,3.1,1.5,4.2c1,1,2.4,1.6,3.9,1.7h0.3c1.5,0,2.9-0.6,3.9-1.7c1-1.1,1.6-2.6,1.5-4.2C24.1,9.6,21.6,7.2,18.6,7.2z
		 M79.8,14.6h-0.3c-2,0-3.8-0.8-5.1-2.2C73,11,72.3,9.1,72.4,7c0.1-3.7,3.3-6.8,7.1-7l0,0l0.2,0c3.9,0,7.2,3.2,7.3,7
		c0.1,2.1-0.7,4-2,5.4C83.6,13.8,81.8,14.6,79.8,14.6L79.8,14.6z M79.6,1.2c-3.3,0.1-5.9,2.7-6,5.8c-0.1,1.8,0.6,3.4,1.7,4.6
		c1.1,1.2,2.6,1.8,4.3,1.8h0.3c1.7,0,3.2-0.7,4.3-1.8c1.1-1.2,1.8-2.8,1.7-4.6C85.7,3.8,83,1.2,79.6,1.2L79.6,1.2z"/>
</g>
</svg>
