<?xml version="1.0" encoding="utf-8"?>
<!-- Generator: Adobe Illustrator 18.1.1, SVG Export Plug-In . SVG Version: 6.00 Build 0)  -->
<!DOCTYPE svg PUBLIC "-//W3C//DTD SVG 1.1//EN" "http://www.w3.org/Graphics/SVG/1.1/DTD/svg11.dtd">
<svg version="1.1" id="Layer_1" xmlns="http://www.w3.org/2000/svg" xmlns:xlink="http://www.w3.org/1999/xlink" x="0px" y="0px"
	 viewBox="0 0 169.7 161" style="enable-background:new 0 0 169.7 161;" xml:space="preserve">
<style type="text/css">
	.st0{fill:#00A5B9;}
	.st1{fill:#0091A5;}
	.st2{fill:#007D91;}
</style>
<path class="st0" d="M159.7,78.7c-6-8.3-13.9-14.3-23.5-17.9c-0.3-0.1-0.6-0.2-0.9-0.4c-0.8-0.2-1.5-0.5-2.3-0.7
	c0.8,0.2,1.5,0.5,2.3,0.7c0.3,0.1,0.6,0.2,0.9,0.4c0-0.3-0.1-0.6-0.1-0.8c0.8-5.2,0.8-10.5,0.1-15.7C133,22.4,116,4.8,94.3,0.9
	C92.6,0.6,90.9,0,89.1,0c-2.7,0-5.4,0-8.2,0c-1.8,0-3.6,0.7-5.4,1C54,4.8,36.9,22.7,33.9,44.4c-0.7,4.9-0.7,9.9,0,14.8
	c0.1,0.5,0,0.9,0.1,1.4c0,0,0,0.1,0,0.1C14.1,68,0,87,0,109.3C0,137.9,23.2,161,51.8,161c12.6,0,24.1-4.5,33.1-12
	c12.3,9.9,26.3,13.7,41.9,11.1c23.8-3.9,42.1-24.8,42.8-48.9C170,99.3,166.8,88.4,159.7,78.7z M94.8,80.3c3.8,5.8,6.4,12.1,7.8,18.9
	c0.1,0.5,0.3,1-0.2,1.4l0,0c-4.5,1.5-9.1,2.5-13.8,2.9c-6.1,0.5-12-0.3-17.8-1.9c-1.2-0.3-2.4-0.8-3.6-1.2c0.2-2.7,1-5.3,1.9-7.8
	c2.7-8.2,7.4-15.2,13.7-21.1c0.8-0.7,1.5-1.5,2.5-2c0.1-0.2,0.2-0.4,0.4-0.5c-0.2,0.1-0.3,0.3-0.4,0.5
	C88.9,72.7,92.1,76.2,94.8,80.3z M99.4,129.6c0,0,0-0.1,0.1-0.1C99.4,129.5,99.4,129.5,99.4,129.6z M56.3,94.8L56.3,94.8
	c-1.1-0.8-2.3-1.7-3.4-2.5C54,93.2,55.1,94,56.3,94.8z"/>
<path class="st1" d="M135.1,59.6c-4.1-4.2-8.8-7.7-14.1-10.4c-6.9-3.5-14.2-5.3-21.9-5.5c-6.9-0.2-13.5,1.1-19.9,3.5
	c-6.1,2.3-11.4,5.6-16.2,9.9c-5.4,4.9-9.7,10.8-12.6,17.6c-1.7,3.8-2.9,7.7-3.5,11.8l-1.2,10.4c-5.8-7-9.6-15.3-11.1-24.9
	c-0.6-3.6-0.7-7.3-0.6-10.9l0,0c-0.1,0.3-0.3,0.6-0.4,0.9c-1.9,6.8-2.5,13.8-1.6,20.8c1.3,10.5,5.5,19.8,12.5,27.8
	c5.7,6.4,12.5,11.2,20.6,14.2c5.3,2,10.8,3,16.4,3.3c3.9,0.2,7.8-0.3,11.6-0.9c2.7-0.5,5.3-1.4,7.9-2l8.8-2.5
	c-1.1,2.6-2.5,5.2-4.1,7.8c-3.5,5.5-8,10.2-13.3,14c-1.7,1.2-3.4,2.4-5.3,3.3c-0.3,0.2-0.7,0.5-1.1,0.2c-0.3,0.2-0.6,0.4-0.8,0.7
	c0.6,0.3,1.2,0,1.8-0.1c10.2-2.7,18.9-8,25.9-16c4.3-4.9,7.5-10.5,9.7-16.6c2.9-7.9,3.7-16,2.6-24.3c-1.6-11.5-6.4-21.4-14.5-29.6
	c-1.1-1.1-2.2-2.1-3.3-3.2l-8.7-6.1c0.5-0.1,0.9-0.2,1.4-0.3c8.6-1.2,17-0.2,25.2,2.9c3,1.1,5.8,2.5,8.5,4.1
	c0.6,0.3,1.1,0.7,1.5,1.2c0.3,0.1,0.6,0.2,0.9,0.4C136.3,60.6,135.4,59.9,135.1,59.6z M95.7,62.6c0.1,0.5,0.5,0.7,0.8,1
	c9.7,8.8,15.6,19.7,17.1,32.7c0.7,6,0.4,11.9-0.9,17.5l-9.7-0.8l0,0c-0.2,0-0.5,0-1,0.2c-6,2-12.2,2.9-18.5,2.6
	c-11-0.5-21-4.1-29.6-10.9c-0.6-0.5-1.1-1-1.6-1.4l4.1-8.7c0.6-4.7,2.2-9.1,4.2-13.4c4.5-9.5,11.3-17,20.4-22.3
	c3-1.8,6.1-3.2,9.3-4.3L95.7,62.6z"/>
<path class="st2" d="M133.9,59.3c-2.7-1.5-5.6-2.9-8.5-4.1c-8.2-3.1-16.6-4-25.2-2.9c-6.9,1-13.3,3.2-19.3,6.7
	C71.8,64.5,65,72,60.5,81.5c-2,4.2-3.6,8.7-4.2,13.4c-1.1-0.8-2.3-1.7-3.4-2.5c-1.4-1.1-2.7-2.3-4-3.5c-0.8-0.6-1.5-1.4-2-2.4
	c-2.4-2.2-4.1-4.9-5.8-7.6c-3.3-5.3-5.4-11-6.6-17.1c-0.1-0.3,0-0.6-0.4-0.6c-0.1,3.7,0,7.3,0.6,10.9c2.2,13.5,8.6,24.5,19.3,32.9
	c8.7,6.9,18.6,10.4,29.6,10.9c6.3,0.3,12.5-0.6,18.5-2.6c1.3-0.4,1.3-0.4,1.4,0.9c-0.4,3.7-1.1,7.4-2.3,11c-0.1,0.4-0.2,0.9-0.4,1.3
	c-3,8.4-7.8,15.5-14.5,21.4c0.4,0.2,0.8,0,1.1-0.2c1.9-0.9,3.6-2.1,5.3-3.3c5.3-3.9,9.7-8.5,13.3-14c6.6-10.4,9.2-21.8,7.8-34.1
	c-1.5-13.1-7.4-23.9-17.1-32.7c-0.3-0.3-0.7-0.5-0.8-1c-1.7,0.8-1.7,0.8,0,0c0.8-0.3,1.6-0.7,2.4-1c3.1-1.2,6.1-2.4,9.4-2.9
	c0.2-0.1,0.4-0.2,0.6-0.2c6-1.2,12-1.2,18.1-0.3c3.2,0.5,6.2,1.4,9.2,2.3C135,60,134.5,59.6,133.9,59.3z M94.9,80.3
	c3.8,5.8,6.4,12.1,7.8,18.9c0.1,0.5,0.3,1-0.2,1.4l0,0c-4.5,1.5-9.1,2.5-13.8,2.9c-6.1,0.5-12-0.3-17.8-1.9
	c-1.2-0.3-2.4-0.8-3.6-1.2c0.2-2.7,1-5.3,1.9-7.8c2.7-8.2,7.4-15.2,13.7-21.1c0.8-0.7,1.5-1.5,2.5-2c0.1-0.2,0.2-0.4,0.4-0.5
	c-0.2,0.1-0.3,0.3-0.4,0.5C88.9,72.7,92.2,76.3,94.9,80.3z"/>
<g>
</g>
<g>
</g>
<g>
</g>
<g>
</g>
<g>
</g>
<g>
</g>
<g>
</g>
<g>
</g>
<g>
</g>
<g>
</g>
<g>
</g>
<g>
</g>
<g>
</g>
<g>
</g>
<g>
</g>
</svg>
