<?xml version="1.0" encoding="utf-8"?>
<!-- Generator: Adobe Illustrator 18.1.1, SVG Export Plug-In . SVG Version: 6.00 Build 0)  -->
<!DOCTYPE svg PUBLIC "-//W3C//DTD SVG 1.1//EN" "http://www.w3.org/Graphics/SVG/1.1/DTD/svg11.dtd">
<svg version="1.1" id="Layer_2" xmlns="http://www.w3.org/2000/svg" xmlns:xlink="http://www.w3.org/1999/xlink" x="0px" y="0px"
	 viewBox="0 0 72 72" style="enable-background:new 0 0 72 72;" xml:space="preserve">
<g>
	<path d="M47.5,54.9h-9.1l0-5.8c0-1.2-1-2.1-2.3-2.1c-1.3,0-2.3,1-2.3,2.1v5.8h-9.1V42.1h-4V37c0-0.5-0.2-0.9-0.5-1.2
		c-0.4-0.3-0.8-0.5-1.3-0.5c-1,0-1.9,0.8-1.9,1.7v5.1H9.1V28.6h19.6v2.8l6.6-4.9c0.5-0.4,1.2-0.4,1.7,0l6.6,4.9v-2.8h19.6v13.5h-7.9
		V37c0-0.5-0.2-0.9-0.5-1.2c-0.4-0.3-0.8-0.5-1.3-0.5c-1,0-1.9,0.8-1.9,1.7v5.1h-4V54.9z M39.4,53.9h7.1V40.3H25.7v13.6h7.1v-4.8
		c0-1.7,1.5-3.1,3.3-3.1c1.8,0,3.3,1.4,3.3,3.1L39.4,53.9z M56.2,41.1h5.9V29.6H44.5v2.6l4.8,3.6c0.5,0.4,0.7,1,0.5,1.6
		s-0.7,1-1.4,1H23.7c-0.6,0-1.2-0.4-1.4-1c-0.2-0.6,0-1.2,0.5-1.6l4.8-3.6v-2.5H10.1v11.5H16V37c0-1.5,1.3-2.7,2.9-2.7
		c0.8,0,1.5,0.3,2,0.8c0.6,0.5,0.9,1.2,0.9,1.9v4.1h3v-1.7h22.7v1.7h3V37c0-1.5,1.3-2.7,2.9-2.7c0.8,0,1.5,0.3,2,0.8
		c0.6,0.5,0.9,1.2,0.9,1.9V41.1z M36.1,27.2c-0.1,0-0.2,0-0.3,0.1l-12.4,9.2c-0.2,0.2-0.2,0.4-0.2,0.5c0,0.1,0.1,0.3,0.4,0.3h24.8
		c0.3,0,0.4-0.2,0.4-0.3c0-0.1,0.1-0.3-0.2-0.5l-12.4-9.2C36.2,27.2,36.2,27.2,36.1,27.2z M63.8,27.5H42.6c-0.6,0-1.1-0.3-1.2-0.9
		c-0.2-0.5,0-1.1,0.5-1.5l10.6-7.9c0.5-0.3,1.1-0.3,1.5,0l10.6,7.9c0.5,0.3,0.6,0.9,0.5,1.5S64.4,27.5,63.8,27.5z M53.2,18.1
		c-0.1,0-0.1,0-0.2,0.1L42.4,26c-0.2,0.1-0.1,0.3-0.1,0.3c0,0.1,0.1,0.2,0.3,0.2h21.2c0.2,0,0.3-0.1,0.3-0.2c0-0.1,0.1-0.2-0.1-0.3
		l-10.6-7.9C53.3,18.1,53.3,18.1,53.2,18.1z M29.4,27.5H8.2c-0.6,0-1.1-0.4-1.2-0.9c-0.2-0.5,0-1.1,0.5-1.5L18,17.3
		c0.5-0.3,1.1-0.3,1.5,0l10.6,7.9c0.5,0.3,0.6,0.9,0.5,1.5C30.4,27.2,30,27.5,29.4,27.5z M18.8,18.1c-0.1,0-0.1,0-0.2,0.1L8,26
		c-0.2,0.1-0.1,0.3-0.1,0.3c0,0.1,0.1,0.2,0.3,0.2h21.2c0.2,0,0.3-0.1,0.3-0.2c0-0.1,0.1-0.2-0.1-0.3L19,18.1
		C18.9,18.1,18.8,18.1,18.8,18.1z"/>
</g>
<g>
</g>
<g>
</g>
<g>
</g>
<g>
</g>
<g>
</g>
<g>
</g>
</svg>
