<?xml version="1.0" encoding="utf-8"?>
<!-- Generator: Adobe Illustrator 18.1.1, SVG Export Plug-In . SVG Version: 6.00 Build 0)  -->
<!DOCTYPE svg PUBLIC "-//W3C//DTD SVG 1.1//EN" "http://www.w3.org/Graphics/SVG/1.1/DTD/svg11.dtd">
<svg version="1.1" id="Layer_2" xmlns="http://www.w3.org/2000/svg" xmlns:xlink="http://www.w3.org/1999/xlink" x="0px" y="0px"
	 viewBox="0 0 100 64.9" style="enable-background:new 0 0 100 64.9;" xml:space="preserve">
<g>
	<path d="M40.7,16.4c0.3-0.9,0-1.9-0.8-2.5L21.8,0.4c-0.8-0.6-1.9-0.6-2.7,0L0.9,13.9c-0.8,0.6-1.1,1.6-0.8,2.5
		C0.4,17.4,1.3,18,2.2,18h36.4C39.6,18,40.4,17.4,40.7,16.4z M1.7,15.9c0-0.1-0.1-0.4,0.2-0.6L20.1,1.8c0.1-0.1,0.2-0.1,0.3-0.1
		c0.1,0,0.2,0,0.3,0.1l18.2,13.5c0.3,0.2,0.2,0.5,0.2,0.6c0,0.1-0.2,0.4-0.5,0.4H2.2C1.9,16.2,1.8,16,1.7,15.9z"/>
	<path d="M62.9,24.6l-11.3-8.4c-0.9-0.7-2.1-0.7-2.9,0l-11.3,8.3v-4.8H3.8v23.1h13.6v-8.7c0-1.6,1.5-3,3.2-3c0.9,0,1.7,0.3,2.3,0.9
		c0.6,0.6,0.9,1.3,0.9,2.1v8.7h6.8v22.1h15.5v-10c0-2,1.8-3.6,3.9-3.6c2.2,0,3.9,1.6,3.9,3.6l0,10h15.6V42.8h6.8v-8.7
		c0-1.6,1.5-3,3.2-3c0.9,0,1.7,0.3,2.3,0.9c0.6,0.6,0.9,1.3,0.9,2.1v8.7h13.6V19.7H62.9V24.6z M49.6,17.5c0.1-0.1,0.3-0.1,0.4-0.1
		c0.2,0,0.3,0,0.4,0.1l21.3,15.8c0.4,0.3,0.3,0.7,0.3,0.8c0,0.1-0.2,0.5-0.7,0.5H28.8c-0.5,0-0.7-0.4-0.7-0.5c0-0.1-0.1-0.5,0.3-0.8
		L49.6,17.5z M67.9,63.2H55.8l0-8.3c0-3-2.5-5.4-5.6-5.4c-3.1,0-5.7,2.4-5.7,5.4v8.3H32.4V39.9h35.5V63.2z M64.6,21.4h30.2v19.7
		H84.6v-7c0-1.2-0.5-2.4-1.5-3.3c-0.9-0.9-2.2-1.4-3.5-1.4c-2.7,0-5,2.1-5,4.7v7h-5.1v-3h-39v3h-5.1v-7c0-1.2-0.5-2.4-1.5-3.3
		c-0.9-0.9-2.2-1.4-3.5-1.4c-2.7,0-5,2.1-5,4.7v7H5.5V21.4h30.2v4.4l-8.3,6.2c-0.9,0.6-1.2,1.7-0.9,2.8c0.3,1,1.3,1.7,2.3,1.7h42.5
		c1.1,0,2-0.7,2.3-1.7c0.3-1,0-2.1-0.9-2.7l-8.2-6.1V21.4z"/>
	<path d="M99,13.9L80.9,0.4c-0.8-0.6-1.9-0.6-2.7,0L60,13.9c-0.8,0.6-1.1,1.6-0.8,2.5c0.3,0.9,1.1,1.5,2.1,1.5h36.4
		c1,0,1.8-0.6,2.1-1.5C100.1,15.5,99.8,14.5,99,13.9z M98.2,15.9c0,0.1-0.2,0.4-0.5,0.4H61.3c-0.3,0-0.5-0.2-0.5-0.4
		c0-0.1-0.1-0.4,0.2-0.6L79.2,1.8c0.1-0.1,0.2-0.1,0.3-0.1c0.1,0,0.2,0,0.3,0.1L98,15.3C98.3,15.5,98.2,15.8,98.2,15.9z"/>
</g>
<g>
</g>
<g>
</g>
<g>
</g>
<g>
</g>
<g>
</g>
<g>
</g>
</svg>
