<?xml version="1.0" encoding="utf-8"?>
<!-- Generator: Adobe Illustrator 18.1.1, SVG Export Plug-In . SVG Version: 6.00 Build 0)  -->
<!DOCTYPE svg PUBLIC "-//W3C//DTD SVG 1.1//EN" "http://www.w3.org/Graphics/SVG/1.1/DTD/svg11.dtd">
<svg version="1.1" id="Layer_1" xmlns="http://www.w3.org/2000/svg" xmlns:xlink="http://www.w3.org/1999/xlink" x="0px" y="0px"
	 viewBox="0 0 50.6 99.7" style="enable-background:new 0 0 50.6 99.7;" xml:space="preserve">
<g>
	<path d="M31.2,99.7c-1.2,0-2.2-0.4-3.1-1.3c-1.5-1.5-2-4-2-5.9c0.1-5.3,0.1-10.7,0-16l0-7.5h-1.8l0,7.5c0,5.3,0,10.7,0,16
		c0,1.8-0.5,4.4-2,5.8c-1.2,1.2-2.7,1.5-4.6,1.1l-0.2-0.1c-2.9-1.7-3.2-4.3-3.2-6.3c0.1-4.4,0.1-8.8,0-13.1c0-2.2,0-4.4,0-6.6v-4.2
		l-3.2,0c-1,0-2,0-3,0c-1.2,0-2.1-0.4-2.8-1.1c-0.6-0.7-0.9-1.6-0.9-2.8c0-0.9,0.2-1.9,0.6-2.9l10.4-29.3c0.2-0.5,0.3-0.9,0.4-1.4
		c0,0.1,0,0.1-0.1,0.2c-0.1,0.2-0.2,0.4-0.3,0.7l-1.8,4.9c-1.7,4.7-3.5,9.5-5.1,14.2c0,0-1.5,4.3-4.6,4.3c-0.3,0-0.7-0.1-1-0.2
		c-1.4-0.4-2.3-1.1-2.8-2.1c-0.5-1-0.6-2.4-0.1-3.8c0.8-2.2,1.6-4.4,2.5-6.6c1.8-4.9,3.8-9.9,5.5-15c2-5.7,6.9-9.3,12.5-9.4
		c0.5,0,1,0,1.5,0l2.9,0l2.9,0c0.5,0,1,0,1.5,0c5.7,0,10.6,3.7,12.5,9.4c1.7,5,3.7,10.1,5.5,15c0.8,2.2,1.6,4.3,2.4,6.5
		c0.5,1.5,0.5,2.8,0,3.9c-0.5,1-1.5,1.7-2.8,2.1c-0.3,0.1-0.7,0.2-1,0.2c-3,0-4.6-4.3-4.6-4.3c-1.4-4.1-2.9-8.2-4.4-12.3
		c-0.8-2.3-1.7-4.6-2.5-6.9c-0.1-0.2-0.2-0.4-0.3-0.6c0-0.1,0-0.1-0.1-0.2c0.1,0.5,0.3,0.9,0.4,1.4l2.8,7.9c2.5,7.1,5,14.3,7.5,21.4
		c0.3,0.9,0.6,1.9,0.6,2.9c0.1,1.2-0.2,2.1-0.9,2.8c-0.6,0.7-1.6,1-2.8,1.1c-1,0-2,0-3,0l-3.2,0v4.2c0,2.2,0,4.4,0,6.6
		c0,4.3-0.1,8.7,0,13.1c0,2.1-0.3,4.7-3.2,6.3l-0.2,0.1C32.2,99.7,31.6,99.7,31.2,99.7z M22.7,67.4h5.2l0,9.2c0,5.3,0,10.7,0,16.1
		c0,1.6,0.4,3.6,1.5,4.6c0.7,0.7,1.6,0.9,2.8,0.6c1.6-1,2.3-2.4,2.2-4.8c-0.1-4.4-0.1-8.9,0-13.2c0-2.2,0-4.4,0-6.6v-5.9l4.9,0
		c1,0,2,0,3,0c0.7,0,1.2-0.2,1.5-0.5c0.3-0.3,0.4-0.8,0.4-1.6c0-0.8-0.2-1.6-0.5-2.4c-2.5-7.1-5-14.3-7.5-21.4l-2.8-7.9
		c-0.2-0.6-0.4-1.3-0.6-2c-0.2-0.8,0.1-1.3,0.3-1.6c0.7-0.9,2.4-0.5,2.8,0.5c0.1,0.2,0.1,0.3,0.2,0.5c0.1,0.2,0.2,0.5,0.3,0.7
		c0.8,2.3,1.7,4.6,2.5,6.9c1.5,4.1,3,8.2,4.4,12.3c0.4,1.1,1.8,3.6,3.4,3.1c0.9-0.3,1.5-0.7,1.8-1.3c0.4-0.8,0.2-1.8,0-2.5
		c-0.8-2.1-1.6-4.3-2.4-6.5c-1.9-4.9-3.8-10-5.5-15c-1.7-5-6-8.2-11-8.2c-0.5,0-1,0-1.5,0l-2.9,0l-2.9,0c-0.5,0-1,0-1.5,0
		c-4.9,0-9.2,3.3-11,8.2c-1.8,5-3.7,10.1-5.5,15c-0.8,2.2-1.6,4.4-2.5,6.5c-0.2,0.7-0.4,1.7,0,2.5c0.3,0.6,0.9,1,1.8,1.3
		c1.6,0.5,3.1-2,3.4-3.1c1.7-4.8,3.4-9.5,5.1-14.3l1.8-5c0.1-0.3,0.2-0.5,0.3-0.7c0.1-0.2,0.2-0.4,0.2-0.5c0.4-1.1,2.1-1.4,2.8-0.5
		c0.2,0.3,0.5,0.8,0.3,1.6c-0.1,0.7-0.3,1.4-0.6,2L6.9,63c-0.3,0.9-0.5,1.7-0.5,2.4c0,0.7,0.1,1.3,0.4,1.6c0.3,0.3,0.8,0.5,1.6,0.5
		c1,0,2,0,3,0l4.9,0v5.9c0,2.2,0,4.4,0,6.6c0,4.3,0.1,8.8,0,13.2c0,2.4,0.6,3.8,2.2,4.8c1.2,0.3,2.1,0.1,2.8-0.6
		c1-1.1,1.5-3.1,1.5-4.6c-0.1-5.3-0.1-10.7,0-16L22.7,67.4z M25.5,18.3h-0.4c-2.5,0-4.8-1-6.4-2.8c-1.7-1.8-2.6-4.2-2.5-6.8
		C16.2,3.9,20.3,0,25.3,0c4.9,0,9.1,3.9,9.2,8.7c0.1,2.6-0.8,5-2.5,6.8C30.3,17.3,28,18.3,25.5,18.3L25.5,18.3z M25.3,1.7
		c-4,0-7.4,3.2-7.5,7.1c-0.1,2.2,0.7,4.1,2.1,5.6c1.3,1.4,3.2,2.2,5.2,2.2h0.4c2,0,3.9-0.8,5.2-2.2c1.4-1.5,2.1-3.5,2.1-5.6
		C32.7,4.9,29.3,1.7,25.3,1.7z"/>
</g>
<g>
</g>
<g>
</g>
<g>
</g>
<g>
</g>
<g>
</g>
<g>
</g>
</svg>
